<?xml version="1.0" encoding="utf-8" standalone="no"?>
<!DOCTYPE svg PUBLIC "-//W3C//DTD SVG 1.1//EN"
  "http://www.w3.org/Graphics/SVG/1.1/DTD/svg11.dtd">
<svg xmlns:xlink="http://www.w3.org/1999/xlink" width="785.5025pt" height="323.471563pt" viewBox="0 0 785.5025 323.471563" xmlns="http://www.w3.org/2000/svg" version="1.1">
 <metadata>
  <rdf:RDF xmlns:dc="http://purl.org/dc/elements/1.1/" xmlns:cc="http://creativecommons.org/ns#" xmlns:rdf="http://www.w3.org/1999/02/22-rdf-syntax-ns#">
   <cc:Work>
    <dc:type rdf:resource="http://purl.org/dc/dcmitype/StillImage"/>
    <dc:date>2026-08-13T18:59:17.472189</dc:date>
    <dc:format>image/svg+xml</dc:format>
    <dc:creator>
     <cc:Agent>
      <dc:title>Matplotlib v3.10.8, https://matplotlib.org/</dc:title>
     </cc:Agent>
    </dc:creator>
   </cc:Work>
  </rdf:RDF>
 </metadata>
 <defs>
  <style type="text/css">*{stroke-linejoin: round; stroke-linecap: butt}</style>
 </defs>
 <g id="figure_1">
  <g id="patch_1">
   <path d="M 0 323.471563 
L 785.5025 323.471563 
L 785.5025 0 
L 0 0 
z
" style="fill: #0d1117"/>
  </g>
  <g id="axes_1">
   <g id="patch_2">
    <path d="M 44.1025 252.620327 
L 778.3025 252.620327 
L 778.3025 31.077969 
L 44.1025 31.077969 
z
" style="fill: #0d1117"/>
   </g>
   <g id="matplotlib.axis_1">
    <g id="xtick_1">
     <g id="line2d_1">
      <defs>
       <path id="m40fa78605b" d="M 0 0 
L 0 3.5 
" style="stroke: #c9d1d9; stroke-width: 0.8"/>
      </defs>
      <g>
       <use xlink:href="#m40fa78605b" x="61.151611" y="252.620327" style="fill: #c9d1d9; stroke: #c9d1d9; stroke-width: 0.8"/>
      </g>
     </g>
     <g id="text_1">
      <!-- Aug 2025 -->
      <g style="fill: #c9d1d9" transform="translate(24.820038 285.679443) rotate(-30) scale(0.085 -0.085)">
       <defs>
        <path id="DejaVuSans-41" d="M 2188 4044 
L 1331 1722 
L 3047 1722 
L 2188 4044 
z
M 1831 4666 
L 2547 4666 
L 4325 0 
L 3669 0 
L 3244 1197 
L 1141 1197 
L 716 0 
L 50 0 
L 1831 4666 
z
" transform="scale(0.015625)"/>
        <path id="DejaVuSans-75" d="M 544 1381 
L 544 3500 
L 1119 3500 
L 1119 1403 
Q 1119 906 1312 657 
Q 1506 409 1894 409 
Q 2359 409 2629 706 
Q 2900 1003 2900 1516 
L 2900 3500 
L 3475 3500 
L 3475 0 
L 2900 0 
L 2900 538 
Q 2691 219 2414 64 
Q 2138 -91 1772 -91 
Q 1169 -91 856 284 
Q 544 659 544 1381 
z
M 1991 3584 
L 1991 3584 
z
" transform="scale(0.015625)"/>
        <path id="DejaVuSans-67" d="M 2906 1791 
Q 2906 2416 2648 2759 
Q 2391 3103 1925 3103 
Q 1463 3103 1205 2759 
Q 947 2416 947 1791 
Q 947 1169 1205 825 
Q 1463 481 1925 481 
Q 2391 481 2648 825 
Q 2906 1169 2906 1791 
z
M 3481 434 
Q 3481 -459 3084 -895 
Q 2688 -1331 1869 -1331 
Q 1566 -1331 1297 -1286 
Q 1028 -1241 775 -1147 
L 775 -588 
Q 1028 -725 1275 -790 
Q 1522 -856 1778 -856 
Q 2344 -856 2625 -561 
Q 2906 -266 2906 331 
L 2906 616 
Q 2728 306 2450 153 
Q 2172 0 1784 0 
Q 1141 0 747 490 
Q 353 981 353 1791 
Q 353 2603 747 3093 
Q 1141 3584 1784 3584 
Q 2172 3584 2450 3431 
Q 2728 3278 2906 2969 
L 2906 3500 
L 3481 3500 
L 3481 434 
z
" transform="scale(0.015625)"/>
        <path id="DejaVuSans-20" transform="scale(0.015625)"/>
        <path id="DejaVuSans-32" d="M 1228 531 
L 3431 531 
L 3431 0 
L 469 0 
L 469 531 
Q 828 903 1448 1529 
Q 2069 2156 2228 2338 
Q 2531 2678 2651 2914 
Q 2772 3150 2772 3378 
Q 2772 3750 2511 3984 
Q 2250 4219 1831 4219 
Q 1534 4219 1204 4116 
Q 875 4013 500 3803 
L 500 4441 
Q 881 4594 1212 4672 
Q 1544 4750 1819 4750 
Q 2544 4750 2975 4387 
Q 3406 4025 3406 3419 
Q 3406 3131 3298 2873 
Q 3191 2616 2906 2266 
Q 2828 2175 2409 1742 
Q 1991 1309 1228 531 
z
" transform="scale(0.015625)"/>
        <path id="DejaVuSans-30" d="M 2034 4250 
Q 1547 4250 1301 3770 
Q 1056 3291 1056 2328 
Q 1056 1369 1301 889 
Q 1547 409 2034 409 
Q 2525 409 2770 889 
Q 3016 1369 3016 2328 
Q 3016 3291 2770 3770 
Q 2525 4250 2034 4250 
z
M 2034 4750 
Q 2819 4750 3233 4129 
Q 3647 3509 3647 2328 
Q 3647 1150 3233 529 
Q 2819 -91 2034 -91 
Q 1250 -91 836 529 
Q 422 1150 422 2328 
Q 422 3509 836 4129 
Q 1250 4750 2034 4750 
z
" transform="scale(0.015625)"/>
        <path id="DejaVuSans-35" d="M 691 4666 
L 3169 4666 
L 3169 4134 
L 1269 4134 
L 1269 2991 
Q 1406 3038 1543 3061 
Q 1681 3084 1819 3084 
Q 2600 3084 3056 2656 
Q 3513 2228 3513 1497 
Q 3513 744 3044 326 
Q 2575 -91 1722 -91 
Q 1428 -91 1123 -41 
Q 819 9 494 109 
L 494 744 
Q 775 591 1075 516 
Q 1375 441 1709 441 
Q 2250 441 2565 725 
Q 2881 1009 2881 1497 
Q 2881 1984 2565 2268 
Q 2250 2553 1709 2553 
Q 1456 2553 1204 2497 
Q 953 2441 691 2322 
L 691 4666 
z
" transform="scale(0.015625)"/>
       </defs>
       <use xlink:href="#DejaVuSans-41"/>
       <use xlink:href="#DejaVuSans-75" transform="translate(68.408203 0)"/>
       <use xlink:href="#DejaVuSans-67" transform="translate(131.787109 0)"/>
       <use xlink:href="#DejaVuSans-20" transform="translate(195.263672 0)"/>
       <use xlink:href="#DejaVuSans-32" transform="translate(227.050781 0)"/>
       <use xlink:href="#DejaVuSans-30" transform="translate(290.673828 0)"/>
       <use xlink:href="#DejaVuSans-32" transform="translate(354.296875 0)"/>
       <use xlink:href="#DejaVuSans-35" transform="translate(417.919922 0)"/>
      </g>
     </g>
    </g>
    <g id="xtick_2">
     <g id="line2d_2">
      <g>
       <use xlink:href="#m40fa78605b" x="117.377401" y="252.620327" style="fill: #c9d1d9; stroke: #c9d1d9; stroke-width: 0.8"/>
      </g>
     </g>
     <g id="text_2">
      <!-- Sep 2025 -->
      <g style="fill: #c9d1d9" transform="translate(81.543861 285.391904) rotate(-30) scale(0.085 -0.085)">
       <defs>
        <path id="DejaVuSans-53" d="M 3425 4513 
L 3425 3897 
Q 3066 4069 2747 4153 
Q 2428 4238 2131 4238 
Q 1616 4238 1336 4038 
Q 1056 3838 1056 3469 
Q 1056 3159 1242 3001 
Q 1428 2844 1947 2747 
L 2328 2669 
Q 3034 2534 3370 2195 
Q 3706 1856 3706 1288 
Q 3706 609 3251 259 
Q 2797 -91 1919 -91 
Q 1588 -91 1214 -16 
Q 841 59 441 206 
L 441 856 
Q 825 641 1194 531 
Q 1563 422 1919 422 
Q 2459 422 2753 634 
Q 3047 847 3047 1241 
Q 3047 1584 2836 1778 
Q 2625 1972 2144 2069 
L 1759 2144 
Q 1053 2284 737 2584 
Q 422 2884 422 3419 
Q 422 4038 858 4394 
Q 1294 4750 2059 4750 
Q 2388 4750 2728 4690 
Q 3069 4631 3425 4513 
z
" transform="scale(0.015625)"/>
        <path id="DejaVuSans-65" d="M 3597 1894 
L 3597 1613 
L 953 1613 
Q 991 1019 1311 708 
Q 1631 397 2203 397 
Q 2534 397 2845 478 
Q 3156 559 3463 722 
L 3463 178 
Q 3153 47 2828 -22 
Q 2503 -91 2169 -91 
Q 1331 -91 842 396 
Q 353 884 353 1716 
Q 353 2575 817 3079 
Q 1281 3584 2069 3584 
Q 2775 3584 3186 3129 
Q 3597 2675 3597 1894 
z
M 3022 2063 
Q 3016 2534 2758 2815 
Q 2500 3097 2075 3097 
Q 1594 3097 1305 2825 
Q 1016 2553 972 2059 
L 3022 2063 
z
" transform="scale(0.015625)"/>
        <path id="DejaVuSans-70" d="M 1159 525 
L 1159 -1331 
L 581 -1331 
L 581 3500 
L 1159 3500 
L 1159 2969 
Q 1341 3281 1617 3432 
Q 1894 3584 2278 3584 
Q 2916 3584 3314 3078 
Q 3713 2572 3713 1747 
Q 3713 922 3314 415 
Q 2916 -91 2278 -91 
Q 1894 -91 1617 61 
Q 1341 213 1159 525 
z
M 3116 1747 
Q 3116 2381 2855 2742 
Q 2594 3103 2138 3103 
Q 1681 3103 1420 2742 
Q 1159 2381 1159 1747 
Q 1159 1113 1420 752 
Q 1681 391 2138 391 
Q 2594 391 2855 752 
Q 3116 1113 3116 1747 
z
" transform="scale(0.015625)"/>
       </defs>
       <use xlink:href="#DejaVuSans-53"/>
       <use xlink:href="#DejaVuSans-65" transform="translate(63.476562 0)"/>
       <use xlink:href="#DejaVuSans-70" transform="translate(125 0)"/>
       <use xlink:href="#DejaVuSans-20" transform="translate(188.476562 0)"/>
       <use xlink:href="#DejaVuSans-32" transform="translate(220.263672 0)"/>
       <use xlink:href="#DejaVuSans-30" transform="translate(283.886719 0)"/>
       <use xlink:href="#DejaVuSans-32" transform="translate(347.509766 0)"/>
       <use xlink:href="#DejaVuSans-35" transform="translate(411.132812 0)"/>
      </g>
     </g>
    </g>
    <g id="xtick_3">
     <g id="line2d_3">
      <g>
       <use xlink:href="#m40fa78605b" x="171.789457" y="252.620327" style="fill: #c9d1d9; stroke: #c9d1d9; stroke-width: 0.8"/>
      </g>
     </g>
     <g id="text_3">
      <!-- Oct 2025 -->
      <g style="fill: #c9d1d9" transform="translate(137.103806 284.729169) rotate(-30) scale(0.085 -0.085)">
       <defs>
        <path id="DejaVuSans-4f" d="M 2522 4238 
Q 1834 4238 1429 3725 
Q 1025 3213 1025 2328 
Q 1025 1447 1429 934 
Q 1834 422 2522 422 
Q 3209 422 3611 934 
Q 4013 1447 4013 2328 
Q 4013 3213 3611 3725 
Q 3209 4238 2522 4238 
z
M 2522 4750 
Q 3503 4750 4090 4092 
Q 4678 3434 4678 2328 
Q 4678 1225 4090 567 
Q 3503 -91 2522 -91 
Q 1538 -91 948 565 
Q 359 1222 359 2328 
Q 359 3434 948 4092 
Q 1538 4750 2522 4750 
z
" transform="scale(0.015625)"/>
        <path id="DejaVuSans-63" d="M 3122 3366 
L 3122 2828 
Q 2878 2963 2633 3030 
Q 2388 3097 2138 3097 
Q 1578 3097 1268 2742 
Q 959 2388 959 1747 
Q 959 1106 1268 751 
Q 1578 397 2138 397 
Q 2388 397 2633 464 
Q 2878 531 3122 666 
L 3122 134 
Q 2881 22 2623 -34 
Q 2366 -91 2075 -91 
Q 1284 -91 818 406 
Q 353 903 353 1747 
Q 353 2603 823 3093 
Q 1294 3584 2113 3584 
Q 2378 3584 2631 3529 
Q 2884 3475 3122 3366 
z
" transform="scale(0.015625)"/>
        <path id="DejaVuSans-74" d="M 1172 4494 
L 1172 3500 
L 2356 3500 
L 2356 3053 
L 1172 3053 
L 1172 1153 
Q 1172 725 1289 603 
Q 1406 481 1766 481 
L 2356 481 
L 2356 0 
L 1766 0 
Q 1100 0 847 248 
Q 594 497 594 1153 
L 594 3053 
L 172 3053 
L 172 3500 
L 594 3500 
L 594 4494 
L 1172 4494 
z
" transform="scale(0.015625)"/>
       </defs>
       <use xlink:href="#DejaVuSans-4f"/>
       <use xlink:href="#DejaVuSans-63" transform="translate(78.710938 0)"/>
       <use xlink:href="#DejaVuSans-74" transform="translate(133.691406 0)"/>
       <use xlink:href="#DejaVuSans-20" transform="translate(172.900391 0)"/>
       <use xlink:href="#DejaVuSans-32" transform="translate(204.6875 0)"/>
       <use xlink:href="#DejaVuSans-30" transform="translate(268.310547 0)"/>
       <use xlink:href="#DejaVuSans-32" transform="translate(331.933594 0)"/>
       <use xlink:href="#DejaVuSans-35" transform="translate(395.556641 0)"/>
      </g>
     </g>
    </g>
    <g id="xtick_4">
     <g id="line2d_4">
      <g>
       <use xlink:href="#m40fa78605b" x="228.015247" y="252.620327" style="fill: #c9d1d9; stroke: #c9d1d9; stroke-width: 0.8"/>
      </g>
     </g>
     <g id="text_4">
      <!-- Nov 2025 -->
      <g style="fill: #c9d1d9" transform="translate(191.689426 285.676122) rotate(-30) scale(0.085 -0.085)">
       <defs>
        <path id="DejaVuSans-4e" d="M 628 4666 
L 1478 4666 
L 3547 763 
L 3547 4666 
L 4159 4666 
L 4159 0 
L 3309 0 
L 1241 3903 
L 1241 0 
L 628 0 
L 628 4666 
z
" transform="scale(0.015625)"/>
        <path id="DejaVuSans-6f" d="M 1959 3097 
Q 1497 3097 1228 2736 
Q 959 2375 959 1747 
Q 959 1119 1226 758 
Q 1494 397 1959 397 
Q 2419 397 2687 759 
Q 2956 1122 2956 1747 
Q 2956 2369 2687 2733 
Q 2419 3097 1959 3097 
z
M 1959 3584 
Q 2709 3584 3137 3096 
Q 3566 2609 3566 1747 
Q 3566 888 3137 398 
Q 2709 -91 1959 -91 
Q 1206 -91 779 398 
Q 353 888 353 1747 
Q 353 2609 779 3096 
Q 1206 3584 1959 3584 
z
" transform="scale(0.015625)"/>
        <path id="DejaVuSans-76" d="M 191 3500 
L 800 3500 
L 1894 563 
L 2988 3500 
L 3597 3500 
L 2284 0 
L 1503 0 
L 191 3500 
z
" transform="scale(0.015625)"/>
       </defs>
       <use xlink:href="#DejaVuSans-4e"/>
       <use xlink:href="#DejaVuSans-6f" transform="translate(74.804688 0)"/>
       <use xlink:href="#DejaVuSans-76" transform="translate(135.986328 0)"/>
       <use xlink:href="#DejaVuSans-20" transform="translate(195.166016 0)"/>
       <use xlink:href="#DejaVuSans-32" transform="translate(226.953125 0)"/>
       <use xlink:href="#DejaVuSans-30" transform="translate(290.576172 0)"/>
       <use xlink:href="#DejaVuSans-32" transform="translate(354.199219 0)"/>
       <use xlink:href="#DejaVuSans-35" transform="translate(417.822266 0)"/>
      </g>
     </g>
    </g>
    <g id="xtick_5">
     <g id="line2d_5">
      <g>
       <use xlink:href="#m40fa78605b" x="282.427302" y="252.620327" style="fill: #c9d1d9; stroke: #c9d1d9; stroke-width: 0.8"/>
      </g>
     </g>
     <g id="text_5">
      <!-- Dec 2025 -->
      <g style="fill: #c9d1d9" transform="translate(246.224551 285.605068) rotate(-30) scale(0.085 -0.085)">
       <defs>
        <path id="DejaVuSans-44" d="M 1259 4147 
L 1259 519 
L 2022 519 
Q 2988 519 3436 956 
Q 3884 1394 3884 2338 
Q 3884 3275 3436 3711 
Q 2988 4147 2022 4147 
L 1259 4147 
z
M 628 4666 
L 1925 4666 
Q 3281 4666 3915 4102 
Q 4550 3538 4550 2338 
Q 4550 1131 3912 565 
Q 3275 0 1925 0 
L 628 0 
L 628 4666 
z
" transform="scale(0.015625)"/>
       </defs>
       <use xlink:href="#DejaVuSans-44"/>
       <use xlink:href="#DejaVuSans-65" transform="translate(77.001953 0)"/>
       <use xlink:href="#DejaVuSans-63" transform="translate(138.525391 0)"/>
       <use xlink:href="#DejaVuSans-20" transform="translate(193.505859 0)"/>
       <use xlink:href="#DejaVuSans-32" transform="translate(225.292969 0)"/>
       <use xlink:href="#DejaVuSans-30" transform="translate(288.916016 0)"/>
       <use xlink:href="#DejaVuSans-32" transform="translate(352.539062 0)"/>
       <use xlink:href="#DejaVuSans-35" transform="translate(416.162109 0)"/>
      </g>
     </g>
    </g>
    <g id="xtick_6">
     <g id="line2d_6">
      <g>
       <use xlink:href="#m40fa78605b" x="338.653093" y="252.620327" style="fill: #c9d1d9; stroke: #c9d1d9; stroke-width: 0.8"/>
      </g>
     </g>
     <g id="text_6">
      <!-- Jan 2026 -->
      <g style="fill: #c9d1d9" transform="translate(305.34767 283.932294) rotate(-30) scale(0.085 -0.085)">
       <defs>
        <path id="DejaVuSans-4a" d="M 628 4666 
L 1259 4666 
L 1259 325 
Q 1259 -519 939 -900 
Q 619 -1281 -91 -1281 
L -331 -1281 
L -331 -750 
L -134 -750 
Q 284 -750 456 -515 
Q 628 -281 628 325 
L 628 4666 
z
" transform="scale(0.015625)"/>
        <path id="DejaVuSans-61" d="M 2194 1759 
Q 1497 1759 1228 1600 
Q 959 1441 959 1056 
Q 959 750 1161 570 
Q 1363 391 1709 391 
Q 2188 391 2477 730 
Q 2766 1069 2766 1631 
L 2766 1759 
L 2194 1759 
z
M 3341 1997 
L 3341 0 
L 2766 0 
L 2766 531 
Q 2569 213 2275 61 
Q 1981 -91 1556 -91 
Q 1019 -91 701 211 
Q 384 513 384 1019 
Q 384 1609 779 1909 
Q 1175 2209 1959 2209 
L 2766 2209 
L 2766 2266 
Q 2766 2663 2505 2880 
Q 2244 3097 1772 3097 
Q 1472 3097 1187 3025 
Q 903 2953 641 2809 
L 641 3341 
Q 956 3463 1253 3523 
Q 1550 3584 1831 3584 
Q 2591 3584 2966 3190 
Q 3341 2797 3341 1997 
z
" transform="scale(0.015625)"/>
        <path id="DejaVuSans-6e" d="M 3513 2113 
L 3513 0 
L 2938 0 
L 2938 2094 
Q 2938 2591 2744 2837 
Q 2550 3084 2163 3084 
Q 1697 3084 1428 2787 
Q 1159 2491 1159 1978 
L 1159 0 
L 581 0 
L 581 3500 
L 1159 3500 
L 1159 2956 
Q 1366 3272 1645 3428 
Q 1925 3584 2291 3584 
Q 2894 3584 3203 3211 
Q 3513 2838 3513 2113 
z
" transform="scale(0.015625)"/>
        <path id="DejaVuSans-36" d="M 2113 2584 
Q 1688 2584 1439 2293 
Q 1191 2003 1191 1497 
Q 1191 994 1439 701 
Q 1688 409 2113 409 
Q 2538 409 2786 701 
Q 3034 994 3034 1497 
Q 3034 2003 2786 2293 
Q 2538 2584 2113 2584 
z
M 3366 4563 
L 3366 3988 
Q 3128 4100 2886 4159 
Q 2644 4219 2406 4219 
Q 1781 4219 1451 3797 
Q 1122 3375 1075 2522 
Q 1259 2794 1537 2939 
Q 1816 3084 2150 3084 
Q 2853 3084 3261 2657 
Q 3669 2231 3669 1497 
Q 3669 778 3244 343 
Q 2819 -91 2113 -91 
Q 1303 -91 875 529 
Q 447 1150 447 2328 
Q 447 3434 972 4092 
Q 1497 4750 2381 4750 
Q 2619 4750 2861 4703 
Q 3103 4656 3366 4563 
z
" transform="scale(0.015625)"/>
       </defs>
       <use xlink:href="#DejaVuSans-4a"/>
       <use xlink:href="#DejaVuSans-61" transform="translate(29.492188 0)"/>
       <use xlink:href="#DejaVuSans-6e" transform="translate(90.771484 0)"/>
       <use xlink:href="#DejaVuSans-20" transform="translate(154.150391 0)"/>
       <use xlink:href="#DejaVuSans-32" transform="translate(185.9375 0)"/>
       <use xlink:href="#DejaVuSans-30" transform="translate(249.560547 0)"/>
       <use xlink:href="#DejaVuSans-32" transform="translate(313.183594 0)"/>
       <use xlink:href="#DejaVuSans-36" transform="translate(376.806641 0)"/>
      </g>
     </g>
    </g>
    <g id="xtick_7">
     <g id="line2d_7">
      <g>
       <use xlink:href="#m40fa78605b" x="394.878883" y="252.620327" style="fill: #c9d1d9; stroke: #c9d1d9; stroke-width: 0.8"/>
      </g>
     </g>
     <g id="text_7">
      <!-- Feb 2026 -->
      <g style="fill: #c9d1d9" transform="translate(359.889583 284.904482) rotate(-30) scale(0.085 -0.085)">
       <defs>
        <path id="DejaVuSans-46" d="M 628 4666 
L 3309 4666 
L 3309 4134 
L 1259 4134 
L 1259 2759 
L 3109 2759 
L 3109 2228 
L 1259 2228 
L 1259 0 
L 628 0 
L 628 4666 
z
" transform="scale(0.015625)"/>
        <path id="DejaVuSans-62" d="M 3116 1747 
Q 3116 2381 2855 2742 
Q 2594 3103 2138 3103 
Q 1681 3103 1420 2742 
Q 1159 2381 1159 1747 
Q 1159 1113 1420 752 
Q 1681 391 2138 391 
Q 2594 391 2855 752 
Q 3116 1113 3116 1747 
z
M 1159 2969 
Q 1341 3281 1617 3432 
Q 1894 3584 2278 3584 
Q 2916 3584 3314 3078 
Q 3713 2572 3713 1747 
Q 3713 922 3314 415 
Q 2916 -91 2278 -91 
Q 1894 -91 1617 61 
Q 1341 213 1159 525 
L 1159 0 
L 581 0 
L 581 4863 
L 1159 4863 
L 1159 2969 
z
" transform="scale(0.015625)"/>
       </defs>
       <use xlink:href="#DejaVuSans-46"/>
       <use xlink:href="#DejaVuSans-65" transform="translate(52.019531 0)"/>
       <use xlink:href="#DejaVuSans-62" transform="translate(113.542969 0)"/>
       <use xlink:href="#DejaVuSans-20" transform="translate(177.019531 0)"/>
       <use xlink:href="#DejaVuSans-32" transform="translate(208.806641 0)"/>
       <use xlink:href="#DejaVuSans-30" transform="translate(272.429688 0)"/>
       <use xlink:href="#DejaVuSans-32" transform="translate(336.052734 0)"/>
       <use xlink:href="#DejaVuSans-36" transform="translate(399.675781 0)"/>
      </g>
     </g>
    </g>
    <g id="xtick_8">
     <g id="line2d_8">
      <g>
       <use xlink:href="#m40fa78605b" x="445.663468" y="252.620327" style="fill: #c9d1d9; stroke: #c9d1d9; stroke-width: 0.8"/>
      </g>
     </g>
     <g id="text_8">
      <!-- Mar 2026 -->
      <g style="fill: #c9d1d9" transform="translate(409.817276 285.399208) rotate(-30) scale(0.085 -0.085)">
       <defs>
        <path id="DejaVuSans-4d" d="M 628 4666 
L 1569 4666 
L 2759 1491 
L 3956 4666 
L 4897 4666 
L 4897 0 
L 4281 0 
L 4281 4097 
L 3078 897 
L 2444 897 
L 1241 4097 
L 1241 0 
L 628 0 
L 628 4666 
z
" transform="scale(0.015625)"/>
        <path id="DejaVuSans-72" d="M 2631 2963 
Q 2534 3019 2420 3045 
Q 2306 3072 2169 3072 
Q 1681 3072 1420 2755 
Q 1159 2438 1159 1844 
L 1159 0 
L 581 0 
L 581 3500 
L 1159 3500 
L 1159 2956 
Q 1341 3275 1631 3429 
Q 1922 3584 2338 3584 
Q 2397 3584 2469 3576 
Q 2541 3569 2628 3553 
L 2631 2963 
z
" transform="scale(0.015625)"/>
       </defs>
       <use xlink:href="#DejaVuSans-4d"/>
       <use xlink:href="#DejaVuSans-61" transform="translate(86.279297 0)"/>
       <use xlink:href="#DejaVuSans-72" transform="translate(147.558594 0)"/>
       <use xlink:href="#DejaVuSans-20" transform="translate(188.671875 0)"/>
       <use xlink:href="#DejaVuSans-32" transform="translate(220.458984 0)"/>
       <use xlink:href="#DejaVuSans-30" transform="translate(284.082031 0)"/>
       <use xlink:href="#DejaVuSans-32" transform="translate(347.705078 0)"/>
       <use xlink:href="#DejaVuSans-36" transform="translate(411.328125 0)"/>
      </g>
     </g>
    </g>
    <g id="xtick_9">
     <g id="line2d_9">
      <g>
       <use xlink:href="#m40fa78605b" x="501.889259" y="252.620327" style="fill: #c9d1d9; stroke: #c9d1d9; stroke-width: 0.8"/>
      </g>
     </g>
     <g id="text_9">
      <!-- Apr 2026 -->
      <g style="fill: #c9d1d9" transform="translate(467.196707 284.733154) rotate(-30) scale(0.085 -0.085)">
       <use xlink:href="#DejaVuSans-41"/>
       <use xlink:href="#DejaVuSans-70" transform="translate(68.408203 0)"/>
       <use xlink:href="#DejaVuSans-72" transform="translate(131.884766 0)"/>
       <use xlink:href="#DejaVuSans-20" transform="translate(172.998047 0)"/>
       <use xlink:href="#DejaVuSans-32" transform="translate(204.785156 0)"/>
       <use xlink:href="#DejaVuSans-30" transform="translate(268.408203 0)"/>
       <use xlink:href="#DejaVuSans-32" transform="translate(332.03125 0)"/>
       <use xlink:href="#DejaVuSans-36" transform="translate(395.654297 0)"/>
      </g>
     </g>
    </g>
    <g id="xtick_10">
     <g id="line2d_10">
      <g>
       <use xlink:href="#m40fa78605b" x="556.301314" y="252.620327" style="fill: #c9d1d9; stroke: #c9d1d9; stroke-width: 0.8"/>
      </g>
     </g>
     <g id="text_10">
      <!-- May 2026 -->
      <g style="fill: #c9d1d9" transform="translate(519.124352 286.167529) rotate(-30) scale(0.085 -0.085)">
       <defs>
        <path id="DejaVuSans-79" d="M 2059 -325 
Q 1816 -950 1584 -1140 
Q 1353 -1331 966 -1331 
L 506 -1331 
L 506 -850 
L 844 -850 
Q 1081 -850 1212 -737 
Q 1344 -625 1503 -206 
L 1606 56 
L 191 3500 
L 800 3500 
L 1894 763 
L 2988 3500 
L 3597 3500 
L 2059 -325 
z
" transform="scale(0.015625)"/>
       </defs>
       <use xlink:href="#DejaVuSans-4d"/>
       <use xlink:href="#DejaVuSans-61" transform="translate(86.279297 0)"/>
       <use xlink:href="#DejaVuSans-79" transform="translate(147.558594 0)"/>
       <use xlink:href="#DejaVuSans-20" transform="translate(206.738281 0)"/>
       <use xlink:href="#DejaVuSans-32" transform="translate(238.525391 0)"/>
       <use xlink:href="#DejaVuSans-30" transform="translate(302.148438 0)"/>
       <use xlink:href="#DejaVuSans-32" transform="translate(365.771484 0)"/>
       <use xlink:href="#DejaVuSans-36" transform="translate(429.394531 0)"/>
      </g>
     </g>
    </g>
    <g id="xtick_11">
     <g id="line2d_11">
      <g>
       <use xlink:href="#m40fa78605b" x="612.527105" y="252.620327" style="fill: #c9d1d9; stroke: #c9d1d9; stroke-width: 0.8"/>
      </g>
     </g>
     <g id="text_11">
      <!-- Jun 2026 -->
      <g style="fill: #c9d1d9" transform="translate(579.067557 284.021279) rotate(-30) scale(0.085 -0.085)">
       <use xlink:href="#DejaVuSans-4a"/>
       <use xlink:href="#DejaVuSans-75" transform="translate(29.492188 0)"/>
       <use xlink:href="#DejaVuSans-6e" transform="translate(92.871094 0)"/>
       <use xlink:href="#DejaVuSans-20" transform="translate(156.25 0)"/>
       <use xlink:href="#DejaVuSans-32" transform="translate(188.037109 0)"/>
       <use xlink:href="#DejaVuSans-30" transform="translate(251.660156 0)"/>
       <use xlink:href="#DejaVuSans-32" transform="translate(315.283203 0)"/>
       <use xlink:href="#DejaVuSans-36" transform="translate(378.90625 0)"/>
      </g>
     </g>
    </g>
    <g id="xtick_12">
     <g id="line2d_12">
      <g>
       <use xlink:href="#m40fa78605b" x="666.93916" y="252.620327" style="fill: #c9d1d9; stroke: #c9d1d9; stroke-width: 0.8"/>
      </g>
     </g>
     <g id="text_12">
      <!-- Jul 2026 -->
      <g style="fill: #c9d1d9" transform="translate(636.099745 282.508544) rotate(-30) scale(0.085 -0.085)">
       <defs>
        <path id="DejaVuSans-6c" d="M 603 4863 
L 1178 4863 
L 1178 0 
L 603 0 
L 603 4863 
z
" transform="scale(0.015625)"/>
       </defs>
       <use xlink:href="#DejaVuSans-4a"/>
       <use xlink:href="#DejaVuSans-75" transform="translate(29.492188 0)"/>
       <use xlink:href="#DejaVuSans-6c" transform="translate(92.871094 0)"/>
       <use xlink:href="#DejaVuSans-20" transform="translate(120.654297 0)"/>
       <use xlink:href="#DejaVuSans-32" transform="translate(152.441406 0)"/>
       <use xlink:href="#DejaVuSans-30" transform="translate(216.064453 0)"/>
       <use xlink:href="#DejaVuSans-32" transform="translate(279.6875 0)"/>
       <use xlink:href="#DejaVuSans-36" transform="translate(343.310547 0)"/>
      </g>
     </g>
    </g>
    <g id="xtick_13">
     <g id="line2d_13">
      <g>
       <use xlink:href="#m40fa78605b" x="723.164951" y="252.620327" style="fill: #c9d1d9; stroke: #c9d1d9; stroke-width: 0.8"/>
      </g>
     </g>
     <g id="text_13">
      <!-- Aug 2026 -->
      <g style="fill: #c9d1d9" transform="translate(686.833378 285.679443) rotate(-30) scale(0.085 -0.085)">
       <use xlink:href="#DejaVuSans-41"/>
       <use xlink:href="#DejaVuSans-75" transform="translate(68.408203 0)"/>
       <use xlink:href="#DejaVuSans-67" transform="translate(131.787109 0)"/>
       <use xlink:href="#DejaVuSans-20" transform="translate(195.263672 0)"/>
       <use xlink:href="#DejaVuSans-32" transform="translate(227.050781 0)"/>
       <use xlink:href="#DejaVuSans-30" transform="translate(290.673828 0)"/>
       <use xlink:href="#DejaVuSans-32" transform="translate(354.296875 0)"/>
       <use xlink:href="#DejaVuSans-36" transform="translate(417.919922 0)"/>
      </g>
     </g>
    </g>
   </g>
   <g id="matplotlib.axis_2">
    <g id="ytick_1">
     <g id="line2d_14">
      <path d="M 44.1025 252.620327 
L 778.3025 252.620327 
" clip-path="url(#p57becb0884)" style="fill: none; stroke: #30363d; stroke-opacity: 0.7; stroke-width: 0.6; stroke-linecap: square"/>
     </g>
     <g id="line2d_15">
      <defs>
       <path id="m0f4890455a" d="M 0 0 
L -3.5 0 
" style="stroke: #c9d1d9; stroke-width: 0.8"/>
      </defs>
      <g>
       <use xlink:href="#m0f4890455a" x="44.1025" y="252.620327" style="fill: #c9d1d9; stroke: #c9d1d9; stroke-width: 0.8"/>
      </g>
     </g>
     <g id="text_14">
      <!-- 0 -->
      <g style="fill: #c9d1d9" transform="translate(31.694375 255.849662) scale(0.085 -0.085)">
       <use xlink:href="#DejaVuSans-30"/>
      </g>
     </g>
    </g>
    <g id="ytick_2">
     <g id="line2d_16">
      <path d="M 44.1025 210.421782 
L 778.3025 210.421782 
" clip-path="url(#p57becb0884)" style="fill: none; stroke: #30363d; stroke-opacity: 0.7; stroke-width: 0.6; stroke-linecap: square"/>
     </g>
     <g id="line2d_17">
      <g>
       <use xlink:href="#m0f4890455a" x="44.1025" y="210.421782" style="fill: #c9d1d9; stroke: #c9d1d9; stroke-width: 0.8"/>
      </g>
     </g>
     <g id="text_15">
      <!-- 20 -->
      <g style="fill: #c9d1d9" transform="translate(26.28625 213.651118) scale(0.085 -0.085)">
       <use xlink:href="#DejaVuSans-32"/>
       <use xlink:href="#DejaVuSans-30" transform="translate(63.623047 0)"/>
      </g>
     </g>
    </g>
    <g id="ytick_3">
     <g id="line2d_18">
      <path d="M 44.1025 168.223238 
L 778.3025 168.223238 
" clip-path="url(#p57becb0884)" style="fill: none; stroke: #30363d; stroke-opacity: 0.7; stroke-width: 0.6; stroke-linecap: square"/>
     </g>
     <g id="line2d_19">
      <g>
       <use xlink:href="#m0f4890455a" x="44.1025" y="168.223238" style="fill: #c9d1d9; stroke: #c9d1d9; stroke-width: 0.8"/>
      </g>
     </g>
     <g id="text_16">
      <!-- 40 -->
      <g style="fill: #c9d1d9" transform="translate(26.28625 171.452574) scale(0.085 -0.085)">
       <defs>
        <path id="DejaVuSans-34" d="M 2419 4116 
L 825 1625 
L 2419 1625 
L 2419 4116 
z
M 2253 4666 
L 3047 4666 
L 3047 1625 
L 3713 1625 
L 3713 1100 
L 3047 1100 
L 3047 0 
L 2419 0 
L 2419 1100 
L 313 1100 
L 313 1709 
L 2253 4666 
z
" transform="scale(0.015625)"/>
       </defs>
       <use xlink:href="#DejaVuSans-34"/>
       <use xlink:href="#DejaVuSans-30" transform="translate(63.623047 0)"/>
      </g>
     </g>
    </g>
    <g id="ytick_4">
     <g id="line2d_20">
      <path d="M 44.1025 126.024694 
L 778.3025 126.024694 
" clip-path="url(#p57becb0884)" style="fill: none; stroke: #30363d; stroke-opacity: 0.7; stroke-width: 0.6; stroke-linecap: square"/>
     </g>
     <g id="line2d_21">
      <g>
       <use xlink:href="#m0f4890455a" x="44.1025" y="126.024694" style="fill: #c9d1d9; stroke: #c9d1d9; stroke-width: 0.8"/>
      </g>
     </g>
     <g id="text_17">
      <!-- 60 -->
      <g style="fill: #c9d1d9" transform="translate(26.28625 129.254029) scale(0.085 -0.085)">
       <use xlink:href="#DejaVuSans-36"/>
       <use xlink:href="#DejaVuSans-30" transform="translate(63.623047 0)"/>
      </g>
     </g>
    </g>
    <g id="ytick_5">
     <g id="line2d_22">
      <path d="M 44.1025 83.826149 
L 778.3025 83.826149 
" clip-path="url(#p57becb0884)" style="fill: none; stroke: #30363d; stroke-opacity: 0.7; stroke-width: 0.6; stroke-linecap: square"/>
     </g>
     <g id="line2d_23">
      <g>
       <use xlink:href="#m0f4890455a" x="44.1025" y="83.826149" style="fill: #c9d1d9; stroke: #c9d1d9; stroke-width: 0.8"/>
      </g>
     </g>
     <g id="text_18">
      <!-- 80 -->
      <g style="fill: #c9d1d9" transform="translate(26.28625 87.055485) scale(0.085 -0.085)">
       <defs>
        <path id="DejaVuSans-38" d="M 2034 2216 
Q 1584 2216 1326 1975 
Q 1069 1734 1069 1313 
Q 1069 891 1326 650 
Q 1584 409 2034 409 
Q 2484 409 2743 651 
Q 3003 894 3003 1313 
Q 3003 1734 2745 1975 
Q 2488 2216 2034 2216 
z
M 1403 2484 
Q 997 2584 770 2862 
Q 544 3141 544 3541 
Q 544 4100 942 4425 
Q 1341 4750 2034 4750 
Q 2731 4750 3128 4425 
Q 3525 4100 3525 3541 
Q 3525 3141 3298 2862 
Q 3072 2584 2669 2484 
Q 3125 2378 3379 2068 
Q 3634 1759 3634 1313 
Q 3634 634 3220 271 
Q 2806 -91 2034 -91 
Q 1263 -91 848 271 
Q 434 634 434 1313 
Q 434 1759 690 2068 
Q 947 2378 1403 2484 
z
M 1172 3481 
Q 1172 3119 1398 2916 
Q 1625 2713 2034 2713 
Q 2441 2713 2670 2916 
Q 2900 3119 2900 3481 
Q 2900 3844 2670 4047 
Q 2441 4250 2034 4250 
Q 1625 4250 1398 4047 
Q 1172 3844 1172 3481 
z
" transform="scale(0.015625)"/>
       </defs>
       <use xlink:href="#DejaVuSans-38"/>
       <use xlink:href="#DejaVuSans-30" transform="translate(63.623047 0)"/>
      </g>
     </g>
    </g>
    <g id="ytick_6">
     <g id="line2d_24">
      <path d="M 44.1025 41.627605 
L 778.3025 41.627605 
" clip-path="url(#p57becb0884)" style="fill: none; stroke: #30363d; stroke-opacity: 0.7; stroke-width: 0.6; stroke-linecap: square"/>
     </g>
     <g id="line2d_25">
      <g>
       <use xlink:href="#m0f4890455a" x="44.1025" y="41.627605" style="fill: #c9d1d9; stroke: #c9d1d9; stroke-width: 0.8"/>
      </g>
     </g>
     <g id="text_19">
      <!-- 100 -->
      <g style="fill: #c9d1d9" transform="translate(20.878125 44.856941) scale(0.085 -0.085)">
       <defs>
        <path id="DejaVuSans-31" d="M 794 531 
L 1825 531 
L 1825 4091 
L 703 3866 
L 703 4441 
L 1819 4666 
L 2450 4666 
L 2450 531 
L 3481 531 
L 3481 0 
L 794 0 
L 794 531 
z
" transform="scale(0.015625)"/>
       </defs>
       <use xlink:href="#DejaVuSans-31"/>
       <use xlink:href="#DejaVuSans-30" transform="translate(63.623047 0)"/>
       <use xlink:href="#DejaVuSans-30" transform="translate(127.246094 0)"/>
      </g>
     </g>
    </g>
    <g id="text_20">
     <!-- Consistency (%) -->
     <g style="fill: #c9d1d9" transform="translate(14.798438 182.322585) rotate(-90) scale(0.1 -0.1)">
      <defs>
       <path id="DejaVuSans-43" d="M 4122 4306 
L 4122 3641 
Q 3803 3938 3442 4084 
Q 3081 4231 2675 4231 
Q 1875 4231 1450 3742 
Q 1025 3253 1025 2328 
Q 1025 1406 1450 917 
Q 1875 428 2675 428 
Q 3081 428 3442 575 
Q 3803 722 4122 1019 
L 4122 359 
Q 3791 134 3420 21 
Q 3050 -91 2638 -91 
Q 1578 -91 968 557 
Q 359 1206 359 2328 
Q 359 3453 968 4101 
Q 1578 4750 2638 4750 
Q 3056 4750 3426 4639 
Q 3797 4528 4122 4306 
z
" transform="scale(0.015625)"/>
       <path id="DejaVuSans-73" d="M 2834 3397 
L 2834 2853 
Q 2591 2978 2328 3040 
Q 2066 3103 1784 3103 
Q 1356 3103 1142 2972 
Q 928 2841 928 2578 
Q 928 2378 1081 2264 
Q 1234 2150 1697 2047 
L 1894 2003 
Q 2506 1872 2764 1633 
Q 3022 1394 3022 966 
Q 3022 478 2636 193 
Q 2250 -91 1575 -91 
Q 1294 -91 989 -36 
Q 684 19 347 128 
L 347 722 
Q 666 556 975 473 
Q 1284 391 1588 391 
Q 1994 391 2212 530 
Q 2431 669 2431 922 
Q 2431 1156 2273 1281 
Q 2116 1406 1581 1522 
L 1381 1569 
Q 847 1681 609 1914 
Q 372 2147 372 2553 
Q 372 3047 722 3315 
Q 1072 3584 1716 3584 
Q 2034 3584 2315 3537 
Q 2597 3491 2834 3397 
z
" transform="scale(0.015625)"/>
       <path id="DejaVuSans-69" d="M 603 3500 
L 1178 3500 
L 1178 0 
L 603 0 
L 603 3500 
z
M 603 4863 
L 1178 4863 
L 1178 4134 
L 603 4134 
L 603 4863 
z
" transform="scale(0.015625)"/>
       <path id="DejaVuSans-28" d="M 1984 4856 
Q 1566 4138 1362 3434 
Q 1159 2731 1159 2009 
Q 1159 1288 1364 580 
Q 1569 -128 1984 -844 
L 1484 -844 
Q 1016 -109 783 600 
Q 550 1309 550 2009 
Q 550 2706 781 3412 
Q 1013 4119 1484 4856 
L 1984 4856 
z
" transform="scale(0.015625)"/>
       <path id="DejaVuSans-25" d="M 4653 2053 
Q 4381 2053 4226 1822 
Q 4072 1591 4072 1178 
Q 4072 772 4226 539 
Q 4381 306 4653 306 
Q 4919 306 5073 539 
Q 5228 772 5228 1178 
Q 5228 1588 5073 1820 
Q 4919 2053 4653 2053 
z
M 4653 2450 
Q 5147 2450 5437 2106 
Q 5728 1763 5728 1178 
Q 5728 594 5436 251 
Q 5144 -91 4653 -91 
Q 4153 -91 3862 251 
Q 3572 594 3572 1178 
Q 3572 1766 3864 2108 
Q 4156 2450 4653 2450 
z
M 1428 4353 
Q 1159 4353 1004 4120 
Q 850 3888 850 3481 
Q 850 3069 1003 2837 
Q 1156 2606 1428 2606 
Q 1700 2606 1854 2837 
Q 2009 3069 2009 3481 
Q 2009 3884 1853 4118 
Q 1697 4353 1428 4353 
z
M 4250 4750 
L 4750 4750 
L 1831 -91 
L 1331 -91 
L 4250 4750 
z
M 1428 4750 
Q 1922 4750 2215 4408 
Q 2509 4066 2509 3481 
Q 2509 2891 2217 2550 
Q 1925 2209 1428 2209 
Q 931 2209 642 2551 
Q 353 2894 353 3481 
Q 353 4063 643 4406 
Q 934 4750 1428 4750 
z
" transform="scale(0.015625)"/>
       <path id="DejaVuSans-29" d="M 513 4856 
L 1013 4856 
Q 1481 4119 1714 3412 
Q 1947 2706 1947 2009 
Q 1947 1309 1714 600 
Q 1481 -109 1013 -844 
L 513 -844 
Q 928 -128 1133 580 
Q 1338 1288 1338 2009 
Q 1338 2731 1133 3434 
Q 928 4138 513 4856 
z
" transform="scale(0.015625)"/>
      </defs>
      <use xlink:href="#DejaVuSans-43"/>
      <use xlink:href="#DejaVuSans-6f" transform="translate(69.824219 0)"/>
      <use xlink:href="#DejaVuSans-6e" transform="translate(131.005859 0)"/>
      <use xlink:href="#DejaVuSans-73" transform="translate(194.384766 0)"/>
      <use xlink:href="#DejaVuSans-69" transform="translate(246.484375 0)"/>
      <use xlink:href="#DejaVuSans-73" transform="translate(274.267578 0)"/>
      <use xlink:href="#DejaVuSans-74" transform="translate(326.367188 0)"/>
      <use xlink:href="#DejaVuSans-65" transform="translate(365.576172 0)"/>
      <use xlink:href="#DejaVuSans-6e" transform="translate(427.099609 0)"/>
      <use xlink:href="#DejaVuSans-63" transform="translate(490.478516 0)"/>
      <use xlink:href="#DejaVuSans-79" transform="translate(545.458984 0)"/>
      <use xlink:href="#DejaVuSans-20" transform="translate(604.638672 0)"/>
      <use xlink:href="#DejaVuSans-28" transform="translate(636.425781 0)"/>
      <use xlink:href="#DejaVuSans-25" transform="translate(675.439453 0)"/>
      <use xlink:href="#DejaVuSans-29" transform="translate(770.458984 0)"/>
     </g>
    </g>
   </g>
   <g id="FillBetweenPolyCollection_1">
    <defs>
     <path id="m1da8407316" d="M 77.475227 -70.851236 
L 77.475227 -70.851236 
L 79.288962 -70.851236 
L 81.102698 -70.851236 
L 82.916433 -70.851236 
L 84.730168 -70.851236 
L 86.543903 -70.851236 
L 88.357638 -70.851236 
L 90.171374 -70.851236 
L 91.985109 -70.851236 
L 93.798844 -70.851236 
L 95.612579 -70.851236 
L 97.426314 -70.851236 
L 99.240049 -70.851236 
L 101.053785 -70.851236 
L 102.86752 -70.851236 
L 104.681255 -70.851236 
L 106.49499 -70.851236 
L 108.308725 -70.851236 
L 110.12246 -70.851236 
L 111.936196 -70.851236 
L 113.749931 -70.851236 
L 115.563666 -70.851236 
L 117.377401 -70.851236 
L 119.191136 -70.851236 
L 121.004872 -70.851236 
L 122.818607 -70.851236 
L 124.632342 -70.851236 
L 126.446077 -70.851236 
L 128.259812 -70.851236 
L 130.073547 -70.851236 
L 131.887283 -70.851236 
L 133.701018 -70.851236 
L 135.514753 -70.851236 
L 137.328488 -70.851236 
L 139.142223 -70.851236 
L 140.955958 -70.851236 
L 142.769694 -70.851236 
L 144.583429 -70.851236 
L 146.397164 -70.851236 
L 148.210899 -70.851236 
L 150.024634 -70.851236 
L 151.83837 -70.851236 
L 153.652105 -70.851236 
L 155.46584 -70.851236 
L 157.279575 -70.851236 
L 159.09331 -70.851236 
L 160.907045 -70.851236 
L 162.720781 -70.851236 
L 164.534516 -70.851236 
L 166.348251 -70.851236 
L 168.161986 -70.851236 
L 169.975721 -70.851236 
L 171.789457 -70.851236 
L 173.603192 -70.851236 
L 175.416927 -70.851236 
L 177.230662 -70.851236 
L 179.044397 -70.851236 
L 180.858132 -70.851236 
L 182.671868 -70.851236 
L 184.485603 -70.851236 
L 186.299338 -70.851236 
L 188.113073 -70.851236 
L 189.926808 -70.851236 
L 191.740543 -70.851236 
L 193.554279 -70.851236 
L 195.368014 -70.851236 
L 197.181749 -70.851236 
L 198.995484 -70.851236 
L 200.809219 -70.851236 
L 202.622955 -70.851236 
L 204.43669 -70.851236 
L 206.250425 -70.851236 
L 208.06416 -70.851236 
L 209.877895 -70.851236 
L 211.69163 -70.851236 
L 213.505366 -70.851236 
L 215.319101 -70.851236 
L 217.132836 -70.851236 
L 218.946571 -70.851236 
L 220.760306 -70.851236 
L 222.574042 -70.851236 
L 224.387777 -70.851236 
L 226.201512 -70.851236 
L 228.015247 -70.851236 
L 229.828982 -70.851236 
L 231.642717 -70.851236 
L 233.456453 -70.851236 
L 235.270188 -70.851236 
L 237.083923 -70.851236 
L 238.897658 -70.851236 
L 240.711393 -70.851236 
L 242.525128 -70.851236 
L 244.338864 -70.851236 
L 246.152599 -70.851236 
L 247.966334 -70.851236 
L 249.780069 -70.851236 
L 251.593804 -70.851236 
L 253.40754 -70.851236 
L 255.221275 -70.851236 
L 257.03501 -70.851236 
L 258.848745 -70.851236 
L 260.66248 -70.851236 
L 262.476215 -70.851236 
L 264.289951 -70.851236 
L 266.103686 -70.851236 
L 267.917421 -70.851236 
L 269.731156 -70.851236 
L 271.544891 -70.851236 
L 273.358626 -70.851236 
L 275.172362 -70.851236 
L 276.986097 -70.851236 
L 278.799832 -70.851236 
L 280.613567 -70.851236 
L 282.427302 -70.851236 
L 284.241038 -70.851236 
L 286.054773 -70.851236 
L 287.868508 -100.993053 
L 289.682243 -100.993053 
L 291.495978 -100.993053 
L 293.309713 -100.993053 
L 295.123449 -100.993053 
L 296.937184 -100.993053 
L 298.750919 -100.993053 
L 300.564654 -70.851236 
L 302.378389 -70.851236 
L 304.192125 -70.851236 
L 306.00586 -70.851236 
L 307.819595 -70.851236 
L 309.63333 -70.851236 
L 311.447065 -70.851236 
L 313.2608 -70.851236 
L 315.074536 -70.851236 
L 316.888271 -70.851236 
L 318.702006 -70.851236 
L 320.515741 -70.851236 
L 322.329476 -70.851236 
L 324.143211 -70.851236 
L 325.956947 -70.851236 
L 327.770682 -70.851236 
L 329.584417 -70.851236 
L 331.398152 -70.851236 
L 333.211887 -70.851236 
L 335.025623 -70.851236 
L 336.839358 -70.851236 
L 338.653093 -70.851236 
L 340.466828 -70.851236 
L 342.280563 -70.851236 
L 344.094298 -70.851236 
L 345.908034 -70.851236 
L 347.721769 -70.851236 
L 349.535504 -70.851236 
L 351.349239 -70.851236 
L 353.162974 -70.851236 
L 354.976709 -70.851236 
L 356.790445 -70.851236 
L 358.60418 -70.851236 
L 360.417915 -70.851236 
L 362.23165 -70.851236 
L 364.045385 -70.851236 
L 365.859121 -70.851236 
L 367.672856 -70.851236 
L 369.486591 -70.851236 
L 371.300326 -70.851236 
L 373.114061 -70.851236 
L 374.927796 -70.851236 
L 376.741532 -70.851236 
L 378.555267 -70.851236 
L 380.369002 -70.851236 
L 382.182737 -70.851236 
L 383.996472 -70.851236 
L 385.810208 -70.851236 
L 387.623943 -70.851236 
L 389.437678 -70.851236 
L 391.251413 -70.851236 
L 393.065148 -70.851236 
L 394.878883 -70.851236 
L 396.692619 -70.851236 
L 398.506354 -70.851236 
L 400.320089 -70.851236 
L 402.133824 -70.851236 
L 403.947559 -70.851236 
L 405.761294 -70.851236 
L 407.57503 -70.851236 
L 409.388765 -70.851236 
L 411.2025 -70.851236 
L 413.016235 -70.851236 
L 414.82997 -70.851236 
L 416.643706 -70.851236 
L 418.457441 -70.851236 
L 420.271176 -70.851236 
L 422.084911 -70.851236 
L 423.898646 -70.851236 
L 425.712381 -70.851236 
L 427.526117 -70.851236 
L 429.339852 -70.851236 
L 431.153587 -70.851236 
L 432.967322 -70.851236 
L 434.781057 -70.851236 
L 436.594792 -70.851236 
L 438.408528 -70.851236 
L 440.222263 -70.851236 
L 442.035998 -70.851236 
L 443.849733 -70.851236 
L 445.663468 -70.851236 
L 447.477204 -70.851236 
L 449.290939 -70.851236 
L 451.104674 -70.851236 
L 452.918409 -70.851236 
L 454.732144 -70.851236 
L 456.545879 -70.851236 
L 458.359615 -70.851236 
L 460.17335 -70.851236 
L 461.987085 -70.851236 
L 463.80082 -70.851236 
L 465.614555 -70.851236 
L 467.428291 -70.851236 
L 469.242026 -70.851236 
L 471.055761 -70.851236 
L 472.869496 -70.851236 
L 474.683231 -70.851236 
L 476.496966 -70.851236 
L 478.310702 -70.851236 
L 480.124437 -70.851236 
L 481.938172 -70.851236 
L 483.751907 -70.851236 
L 485.565642 -70.851236 
L 487.379377 -70.851236 
L 489.193113 -70.851236 
L 491.006848 -70.851236 
L 492.820583 -70.851236 
L 494.634318 -70.851236 
L 496.448053 -70.851236 
L 498.261789 -70.851236 
L 500.075524 -70.851236 
L 501.889259 -70.851236 
L 503.702994 -70.851236 
L 505.516729 -70.851236 
L 507.330464 -70.851236 
L 509.1442 -70.851236 
L 510.957935 -70.851236 
L 512.77167 -70.851236 
L 514.585405 -70.851236 
L 516.39914 -70.851236 
L 518.212875 -70.851236 
L 520.026611 -100.993053 
L 521.840346 -100.993053 
L 523.654081 -100.993053 
L 525.467816 -100.993053 
L 527.281551 -100.993053 
L 529.095287 -100.993053 
L 530.909022 -100.993053 
L 532.722757 -70.851236 
L 534.536492 -70.851236 
L 536.350227 -70.851236 
L 538.163962 -70.851236 
L 539.977698 -70.851236 
L 541.791433 -70.851236 
L 543.605168 -70.851236 
L 545.418903 -70.851236 
L 547.232638 -70.851236 
L 549.046374 -70.851236 
L 550.860109 -70.851236 
L 552.673844 -70.851236 
L 554.487579 -70.851236 
L 556.301314 -100.993053 
L 558.115049 -131.134871 
L 559.928785 -161.276688 
L 561.74252 -191.418506 
L 563.556255 -221.560323 
L 565.36999 -251.70214 
L 567.183725 -281.843958 
L 568.99746 -281.843958 
L 570.811196 -281.843958 
L 572.624931 -251.70214 
L 574.438666 -251.70214 
L 576.252401 -251.70214 
L 578.066136 -221.560323 
L 579.879872 -221.560323 
L 581.693607 -221.560323 
L 583.507342 -221.560323 
L 585.321077 -251.70214 
L 587.134812 -251.70214 
L 588.948547 -251.70214 
L 590.762283 -281.843958 
L 592.576018 -281.843958 
L 594.389753 -281.843958 
L 596.203488 -281.843958 
L 598.017223 -281.843958 
L 599.830958 -281.843958 
L 601.644694 -281.843958 
L 603.458429 -281.843958 
L 605.272164 -281.843958 
L 607.085899 -251.70214 
L 608.899634 -251.70214 
L 610.71337 -221.560323 
L 612.527105 -221.560323 
L 614.34084 -221.560323 
L 616.154575 -191.418506 
L 617.96831 -191.418506 
L 619.782045 -221.560323 
L 621.595781 -221.560323 
L 623.409516 -221.560323 
L 625.223251 -221.560323 
L 627.036986 -221.560323 
L 628.850721 -221.560323 
L 630.664457 -221.560323 
L 632.478192 -221.560323 
L 634.291927 -221.560323 
L 636.105662 -251.70214 
L 637.919397 -251.70214 
L 639.733132 -251.70214 
L 641.546868 -281.843958 
L 643.360603 -251.70214 
L 645.174338 -251.70214 
L 646.988073 -221.560323 
L 648.801808 -191.418506 
L 650.615543 -161.276688 
L 652.429279 -161.276688 
L 654.243014 -131.134871 
L 656.056749 -161.276688 
L 657.870484 -161.276688 
L 659.684219 -161.276688 
L 661.497955 -161.276688 
L 663.31169 -191.418506 
L 665.125425 -161.276688 
L 666.93916 -161.276688 
L 668.752895 -161.276688 
L 670.56663 -161.276688 
L 672.380366 -191.418506 
L 674.194101 -221.560323 
L 676.007836 -191.418506 
L 677.821571 -221.560323 
L 679.635306 -221.560323 
L 681.449042 -191.418506 
L 683.262777 -191.418506 
L 685.076512 -161.276688 
L 686.890247 -161.276688 
L 688.703982 -191.418506 
L 690.517717 -191.418506 
L 692.331453 -221.560323 
L 694.145188 -251.70214 
L 695.958923 -221.560323 
L 697.772658 -221.560323 
L 699.586393 -221.560323 
L 701.400128 -221.560323 
L 703.213864 -191.418506 
L 705.027599 -191.418506 
L 706.841334 -161.276688 
L 708.655069 -191.418506 
L 710.468804 -191.418506 
L 712.28254 -191.418506 
L 714.096275 -191.418506 
L 715.91001 -191.418506 
L 717.723745 -161.276688 
L 719.53748 -191.418506 
L 721.351215 -191.418506 
L 723.164951 -191.418506 
L 724.978686 -161.276688 
L 726.792421 -131.134871 
L 728.606156 -131.134871 
L 730.419891 -161.276688 
L 732.233626 -161.276688 
L 734.047362 -161.276688 
L 735.861097 -191.418506 
L 737.674832 -221.560323 
L 739.488567 -251.70214 
L 741.302302 -281.843958 
L 743.116038 -281.843958 
L 744.929773 -281.843958 
L 744.929773 -70.851236 
L 744.929773 -70.851236 
L 743.116038 -70.851236 
L 741.302302 -70.851236 
L 739.488567 -70.851236 
L 737.674832 -70.851236 
L 735.861097 -70.851236 
L 734.047362 -70.851236 
L 732.233626 -70.851236 
L 730.419891 -70.851236 
L 728.606156 -70.851236 
L 726.792421 -70.851236 
L 724.978686 -70.851236 
L 723.164951 -70.851236 
L 721.351215 -70.851236 
L 719.53748 -70.851236 
L 717.723745 -70.851236 
L 715.91001 -70.851236 
L 714.096275 -70.851236 
L 712.28254 -70.851236 
L 710.468804 -70.851236 
L 708.655069 -70.851236 
L 706.841334 -70.851236 
L 705.027599 -70.851236 
L 703.213864 -70.851236 
L 701.400128 -70.851236 
L 699.586393 -70.851236 
L 697.772658 -70.851236 
L 695.958923 -70.851236 
L 694.145188 -70.851236 
L 692.331453 -70.851236 
L 690.517717 -70.851236 
L 688.703982 -70.851236 
L 686.890247 -70.851236 
L 685.076512 -70.851236 
L 683.262777 -70.851236 
L 681.449042 -70.851236 
L 679.635306 -70.851236 
L 677.821571 -70.851236 
L 676.007836 -70.851236 
L 674.194101 -70.851236 
L 672.380366 -70.851236 
L 670.56663 -70.851236 
L 668.752895 -70.851236 
L 666.93916 -70.851236 
L 665.125425 -70.851236 
L 663.31169 -70.851236 
L 661.497955 -70.851236 
L 659.684219 -70.851236 
L 657.870484 -70.851236 
L 656.056749 -70.851236 
L 654.243014 -70.851236 
L 652.429279 -70.851236 
L 650.615543 -70.851236 
L 648.801808 -70.851236 
L 646.988073 -70.851236 
L 645.174338 -70.851236 
L 643.360603 -70.851236 
L 641.546868 -70.851236 
L 639.733132 -70.851236 
L 637.919397 -70.851236 
L 636.105662 -70.851236 
L 634.291927 -70.851236 
L 632.478192 -70.851236 
L 630.664457 -70.851236 
L 628.850721 -70.851236 
L 627.036986 -70.851236 
L 625.223251 -70.851236 
L 623.409516 -70.851236 
L 621.595781 -70.851236 
L 619.782045 -70.851236 
L 617.96831 -70.851236 
L 616.154575 -70.851236 
L 614.34084 -70.851236 
L 612.527105 -70.851236 
L 610.71337 -70.851236 
L 608.899634 -70.851236 
L 607.085899 -70.851236 
L 605.272164 -70.851236 
L 603.458429 -70.851236 
L 601.644694 -70.851236 
L 599.830958 -70.851236 
L 598.017223 -70.851236 
L 596.203488 -70.851236 
L 594.389753 -70.851236 
L 592.576018 -70.851236 
L 590.762283 -70.851236 
L 588.948547 -70.851236 
L 587.134812 -70.851236 
L 585.321077 -70.851236 
L 583.507342 -70.851236 
L 581.693607 -70.851236 
L 579.879872 -70.851236 
L 578.066136 -70.851236 
L 576.252401 -70.851236 
L 574.438666 -70.851236 
L 572.624931 -70.851236 
L 570.811196 -70.851236 
L 568.99746 -70.851236 
L 567.183725 -70.851236 
L 565.36999 -70.851236 
L 563.556255 -70.851236 
L 561.74252 -70.851236 
L 559.928785 -70.851236 
L 558.115049 -70.851236 
L 556.301314 -70.851236 
L 554.487579 -70.851236 
L 552.673844 -70.851236 
L 550.860109 -70.851236 
L 549.046374 -70.851236 
L 547.232638 -70.851236 
L 545.418903 -70.851236 
L 543.605168 -70.851236 
L 541.791433 -70.851236 
L 539.977698 -70.851236 
L 538.163962 -70.851236 
L 536.350227 -70.851236 
L 534.536492 -70.851236 
L 532.722757 -70.851236 
L 530.909022 -70.851236 
L 529.095287 -70.851236 
L 527.281551 -70.851236 
L 525.467816 -70.851236 
L 523.654081 -70.851236 
L 521.840346 -70.851236 
L 520.026611 -70.851236 
L 518.212875 -70.851236 
L 516.39914 -70.851236 
L 514.585405 -70.851236 
L 512.77167 -70.851236 
L 510.957935 -70.851236 
L 509.1442 -70.851236 
L 507.330464 -70.851236 
L 505.516729 -70.851236 
L 503.702994 -70.851236 
L 501.889259 -70.851236 
L 500.075524 -70.851236 
L 498.261789 -70.851236 
L 496.448053 -70.851236 
L 494.634318 -70.851236 
L 492.820583 -70.851236 
L 491.006848 -70.851236 
L 489.193113 -70.851236 
L 487.379377 -70.851236 
L 485.565642 -70.851236 
L 483.751907 -70.851236 
L 481.938172 -70.851236 
L 480.124437 -70.851236 
L 478.310702 -70.851236 
L 476.496966 -70.851236 
L 474.683231 -70.851236 
L 472.869496 -70.851236 
L 471.055761 -70.851236 
L 469.242026 -70.851236 
L 467.428291 -70.851236 
L 465.614555 -70.851236 
L 463.80082 -70.851236 
L 461.987085 -70.851236 
L 460.17335 -70.851236 
L 458.359615 -70.851236 
L 456.545879 -70.851236 
L 454.732144 -70.851236 
L 452.918409 -70.851236 
L 451.104674 -70.851236 
L 449.290939 -70.851236 
L 447.477204 -70.851236 
L 445.663468 -70.851236 
L 443.849733 -70.851236 
L 442.035998 -70.851236 
L 440.222263 -70.851236 
L 438.408528 -70.851236 
L 436.594792 -70.851236 
L 434.781057 -70.851236 
L 432.967322 -70.851236 
L 431.153587 -70.851236 
L 429.339852 -70.851236 
L 427.526117 -70.851236 
L 425.712381 -70.851236 
L 423.898646 -70.851236 
L 422.084911 -70.851236 
L 420.271176 -70.851236 
L 418.457441 -70.851236 
L 416.643706 -70.851236 
L 414.82997 -70.851236 
L 413.016235 -70.851236 
L 411.2025 -70.851236 
L 409.388765 -70.851236 
L 407.57503 -70.851236 
L 405.761294 -70.851236 
L 403.947559 -70.851236 
L 402.133824 -70.851236 
L 400.320089 -70.851236 
L 398.506354 -70.851236 
L 396.692619 -70.851236 
L 394.878883 -70.851236 
L 393.065148 -70.851236 
L 391.251413 -70.851236 
L 389.437678 -70.851236 
L 387.623943 -70.851236 
L 385.810208 -70.851236 
L 383.996472 -70.851236 
L 382.182737 -70.851236 
L 380.369002 -70.851236 
L 378.555267 -70.851236 
L 376.741532 -70.851236 
L 374.927796 -70.851236 
L 373.114061 -70.851236 
L 371.300326 -70.851236 
L 369.486591 -70.851236 
L 367.672856 -70.851236 
L 365.859121 -70.851236 
L 364.045385 -70.851236 
L 362.23165 -70.851236 
L 360.417915 -70.851236 
L 358.60418 -70.851236 
L 356.790445 -70.851236 
L 354.976709 -70.851236 
L 353.162974 -70.851236 
L 351.349239 -70.851236 
L 349.535504 -70.851236 
L 347.721769 -70.851236 
L 345.908034 -70.851236 
L 344.094298 -70.851236 
L 342.280563 -70.851236 
L 340.466828 -70.851236 
L 338.653093 -70.851236 
L 336.839358 -70.851236 
L 335.025623 -70.851236 
L 333.211887 -70.851236 
L 331.398152 -70.851236 
L 329.584417 -70.851236 
L 327.770682 -70.851236 
L 325.956947 -70.851236 
L 324.143211 -70.851236 
L 322.329476 -70.851236 
L 320.515741 -70.851236 
L 318.702006 -70.851236 
L 316.888271 -70.851236 
L 315.074536 -70.851236 
L 313.2608 -70.851236 
L 311.447065 -70.851236 
L 309.63333 -70.851236 
L 307.819595 -70.851236 
L 306.00586 -70.851236 
L 304.192125 -70.851236 
L 302.378389 -70.851236 
L 300.564654 -70.851236 
L 298.750919 -70.851236 
L 296.937184 -70.851236 
L 295.123449 -70.851236 
L 293.309713 -70.851236 
L 291.495978 -70.851236 
L 289.682243 -70.851236 
L 287.868508 -70.851236 
L 286.054773 -70.851236 
L 284.241038 -70.851236 
L 282.427302 -70.851236 
L 280.613567 -70.851236 
L 278.799832 -70.851236 
L 276.986097 -70.851236 
L 275.172362 -70.851236 
L 273.358626 -70.851236 
L 271.544891 -70.851236 
L 269.731156 -70.851236 
L 267.917421 -70.851236 
L 266.103686 -70.851236 
L 264.289951 -70.851236 
L 262.476215 -70.851236 
L 260.66248 -70.851236 
L 258.848745 -70.851236 
L 257.03501 -70.851236 
L 255.221275 -70.851236 
L 253.40754 -70.851236 
L 251.593804 -70.851236 
L 249.780069 -70.851236 
L 247.966334 -70.851236 
L 246.152599 -70.851236 
L 244.338864 -70.851236 
L 242.525128 -70.851236 
L 240.711393 -70.851236 
L 238.897658 -70.851236 
L 237.083923 -70.851236 
L 235.270188 -70.851236 
L 233.456453 -70.851236 
L 231.642717 -70.851236 
L 229.828982 -70.851236 
L 228.015247 -70.851236 
L 226.201512 -70.851236 
L 224.387777 -70.851236 
L 222.574042 -70.851236 
L 220.760306 -70.851236 
L 218.946571 -70.851236 
L 217.132836 -70.851236 
L 215.319101 -70.851236 
L 213.505366 -70.851236 
L 211.69163 -70.851236 
L 209.877895 -70.851236 
L 208.06416 -70.851236 
L 206.250425 -70.851236 
L 204.43669 -70.851236 
L 202.622955 -70.851236 
L 200.809219 -70.851236 
L 198.995484 -70.851236 
L 197.181749 -70.851236 
L 195.368014 -70.851236 
L 193.554279 -70.851236 
L 191.740543 -70.851236 
L 189.926808 -70.851236 
L 188.113073 -70.851236 
L 186.299338 -70.851236 
L 184.485603 -70.851236 
L 182.671868 -70.851236 
L 180.858132 -70.851236 
L 179.044397 -70.851236 
L 177.230662 -70.851236 
L 175.416927 -70.851236 
L 173.603192 -70.851236 
L 171.789457 -70.851236 
L 169.975721 -70.851236 
L 168.161986 -70.851236 
L 166.348251 -70.851236 
L 164.534516 -70.851236 
L 162.720781 -70.851236 
L 160.907045 -70.851236 
L 159.09331 -70.851236 
L 157.279575 -70.851236 
L 155.46584 -70.851236 
L 153.652105 -70.851236 
L 151.83837 -70.851236 
L 150.024634 -70.851236 
L 148.210899 -70.851236 
L 146.397164 -70.851236 
L 144.583429 -70.851236 
L 142.769694 -70.851236 
L 140.955958 -70.851236 
L 139.142223 -70.851236 
L 137.328488 -70.851236 
L 135.514753 -70.851236 
L 133.701018 -70.851236 
L 131.887283 -70.851236 
L 130.073547 -70.851236 
L 128.259812 -70.851236 
L 126.446077 -70.851236 
L 124.632342 -70.851236 
L 122.818607 -70.851236 
L 121.004872 -70.851236 
L 119.191136 -70.851236 
L 117.377401 -70.851236 
L 115.563666 -70.851236 
L 113.749931 -70.851236 
L 111.936196 -70.851236 
L 110.12246 -70.851236 
L 108.308725 -70.851236 
L 106.49499 -70.851236 
L 104.681255 -70.851236 
L 102.86752 -70.851236 
L 101.053785 -70.851236 
L 99.240049 -70.851236 
L 97.426314 -70.851236 
L 95.612579 -70.851236 
L 93.798844 -70.851236 
L 91.985109 -70.851236 
L 90.171374 -70.851236 
L 88.357638 -70.851236 
L 86.543903 -70.851236 
L 84.730168 -70.851236 
L 82.916433 -70.851236 
L 81.102698 -70.851236 
L 79.288962 -70.851236 
L 77.475227 -70.851236 
z
" style="stroke: #7a5cff; stroke-opacity: 0.3"/>
    </defs>
    <g clip-path="url(#p57becb0884)">
     <use xlink:href="#m1da8407316" x="0" y="323.471563" style="fill: #7a5cff; fill-opacity: 0.3; stroke: #7a5cff; stroke-opacity: 0.3"/>
    </g>
   </g>
   <g id="patch_3">
    <path d="M 44.1025 252.620327 
L 44.1025 31.077969 
" style="fill: none; stroke: #30363d; stroke-width: 0.8; stroke-linejoin: miter; stroke-linecap: square"/>
   </g>
   <g id="patch_4">
    <path d="M 44.1025 252.620327 
L 778.3025 252.620327 
" style="fill: none; stroke: #30363d; stroke-width: 0.8; stroke-linejoin: miter; stroke-linecap: square"/>
   </g>
   <g id="line2d_26">
    <path d="M 77.475227 252.620327 
L 286.054773 252.620327 
L 287.868508 222.478509 
L 298.750919 222.478509 
L 300.564654 252.620327 
L 518.212875 252.620327 
L 520.026611 222.478509 
L 530.909022 222.478509 
L 532.722757 252.620327 
L 554.487579 252.620327 
L 567.183725 41.627605 
L 570.811196 41.627605 
L 572.624931 71.769422 
L 576.252401 71.769422 
L 578.066136 101.91124 
L 583.507342 101.91124 
L 585.321077 71.769422 
L 588.948547 71.769422 
L 590.762283 41.627605 
L 605.272164 41.627605 
L 607.085899 71.769422 
L 608.899634 71.769422 
L 610.71337 101.91124 
L 614.34084 101.91124 
L 616.154575 132.053057 
L 617.96831 132.053057 
L 619.782045 101.91124 
L 634.291927 101.91124 
L 636.105662 71.769422 
L 639.733132 71.769422 
L 641.546868 41.627605 
L 643.360603 71.769422 
L 645.174338 71.769422 
L 650.615543 162.194874 
L 652.429279 162.194874 
L 654.243014 192.336692 
L 656.056749 162.194874 
L 661.497955 162.194874 
L 663.31169 132.053057 
L 665.125425 162.194874 
L 670.56663 162.194874 
L 674.194101 101.91124 
L 676.007836 132.053057 
L 677.821571 101.91124 
L 679.635306 101.91124 
L 681.449042 132.053057 
L 683.262777 132.053057 
L 685.076512 162.194874 
L 686.890247 162.194874 
L 688.703982 132.053057 
L 690.517717 132.053057 
L 694.145188 71.769422 
L 695.958923 101.91124 
L 701.400128 101.91124 
L 703.213864 132.053057 
L 705.027599 132.053057 
L 706.841334 162.194874 
L 708.655069 132.053057 
L 715.91001 132.053057 
L 717.723745 162.194874 
L 719.53748 132.053057 
L 723.164951 132.053057 
L 726.792421 192.336692 
L 728.606156 192.336692 
L 730.419891 162.194874 
L 734.047362 162.194874 
L 741.302302 41.627605 
L 744.929773 41.627605 
L 744.929773 41.627605 
" clip-path="url(#p57becb0884)" style="fill: none; stroke: #00c2ff; stroke-width: 2.2; stroke-linecap: round"/>
   </g>
   <g id="text_21">
    <!-- Days vs Consistency  —  rolling 7-day activity rate -->
    <g style="fill: #e8edf3" transform="translate(228.063984 17.077969) scale(0.13 -0.13)">
     <defs>
      <path id="DejaVuSans-Bold-44" d="M 1791 3756 
L 1791 909 
L 2222 909 
Q 2959 909 3348 1275 
Q 3738 1641 3738 2338 
Q 3738 3031 3350 3393 
Q 2963 3756 2222 3756 
L 1791 3756 
z
M 588 4666 
L 1856 4666 
Q 2919 4666 3439 4514 
Q 3959 4363 4331 4000 
Q 4659 3684 4818 3271 
Q 4978 2859 4978 2338 
Q 4978 1809 4818 1395 
Q 4659 981 4331 666 
Q 3956 303 3431 151 
Q 2906 0 1856 0 
L 588 0 
L 588 4666 
z
" transform="scale(0.015625)"/>
      <path id="DejaVuSans-Bold-61" d="M 2106 1575 
Q 1756 1575 1579 1456 
Q 1403 1338 1403 1106 
Q 1403 894 1545 773 
Q 1688 653 1941 653 
Q 2256 653 2472 879 
Q 2688 1106 2688 1447 
L 2688 1575 
L 2106 1575 
z
M 3816 1997 
L 3816 0 
L 2688 0 
L 2688 519 
Q 2463 200 2181 54 
Q 1900 -91 1497 -91 
Q 953 -91 614 226 
Q 275 544 275 1050 
Q 275 1666 698 1953 
Q 1122 2241 2028 2241 
L 2688 2241 
L 2688 2328 
Q 2688 2594 2478 2717 
Q 2269 2841 1825 2841 
Q 1466 2841 1156 2769 
Q 847 2697 581 2553 
L 581 3406 
Q 941 3494 1303 3539 
Q 1666 3584 2028 3584 
Q 2975 3584 3395 3211 
Q 3816 2838 3816 1997 
z
" transform="scale(0.015625)"/>
      <path id="DejaVuSans-Bold-79" d="M 78 3500 
L 1197 3500 
L 2138 1125 
L 2938 3500 
L 4056 3500 
L 2584 -331 
Q 2363 -916 2067 -1148 
Q 1772 -1381 1288 -1381 
L 641 -1381 
L 641 -647 
L 991 -647 
Q 1275 -647 1404 -556 
Q 1534 -466 1606 -231 
L 1638 -134 
L 78 3500 
z
" transform="scale(0.015625)"/>
      <path id="DejaVuSans-Bold-73" d="M 3272 3391 
L 3272 2541 
Q 2913 2691 2578 2766 
Q 2244 2841 1947 2841 
Q 1628 2841 1473 2761 
Q 1319 2681 1319 2516 
Q 1319 2381 1436 2309 
Q 1553 2238 1856 2203 
L 2053 2175 
Q 2913 2066 3209 1816 
Q 3506 1566 3506 1031 
Q 3506 472 3093 190 
Q 2681 -91 1863 -91 
Q 1516 -91 1145 -36 
Q 775 19 384 128 
L 384 978 
Q 719 816 1070 734 
Q 1422 653 1784 653 
Q 2113 653 2278 743 
Q 2444 834 2444 1013 
Q 2444 1163 2330 1236 
Q 2216 1309 1875 1350 
L 1678 1375 
Q 931 1469 631 1722 
Q 331 1975 331 2491 
Q 331 3047 712 3315 
Q 1094 3584 1881 3584 
Q 2191 3584 2531 3537 
Q 2872 3491 3272 3391 
z
" transform="scale(0.015625)"/>
      <path id="DejaVuSans-Bold-20" transform="scale(0.015625)"/>
      <path id="DejaVuSans-Bold-76" d="M 97 3500 
L 1216 3500 
L 2088 1081 
L 2956 3500 
L 4078 3500 
L 2700 0 
L 1472 0 
L 97 3500 
z
" transform="scale(0.015625)"/>
      <path id="DejaVuSans-Bold-43" d="M 4288 256 
Q 3956 84 3597 -3 
Q 3238 -91 2847 -91 
Q 1681 -91 1000 561 
Q 319 1213 319 2328 
Q 319 3447 1000 4098 
Q 1681 4750 2847 4750 
Q 3238 4750 3597 4662 
Q 3956 4575 4288 4403 
L 4288 3438 
Q 3953 3666 3628 3772 
Q 3303 3878 2944 3878 
Q 2300 3878 1931 3465 
Q 1563 3053 1563 2328 
Q 1563 1606 1931 1193 
Q 2300 781 2944 781 
Q 3303 781 3628 887 
Q 3953 994 4288 1222 
L 4288 256 
z
" transform="scale(0.015625)"/>
      <path id="DejaVuSans-Bold-6f" d="M 2203 2784 
Q 1831 2784 1636 2517 
Q 1441 2250 1441 1747 
Q 1441 1244 1636 976 
Q 1831 709 2203 709 
Q 2569 709 2762 976 
Q 2956 1244 2956 1747 
Q 2956 2250 2762 2517 
Q 2569 2784 2203 2784 
z
M 2203 3584 
Q 3106 3584 3614 3096 
Q 4122 2609 4122 1747 
Q 4122 884 3614 396 
Q 3106 -91 2203 -91 
Q 1297 -91 786 396 
Q 275 884 275 1747 
Q 275 2609 786 3096 
Q 1297 3584 2203 3584 
z
" transform="scale(0.015625)"/>
      <path id="DejaVuSans-Bold-6e" d="M 4056 2131 
L 4056 0 
L 2931 0 
L 2931 347 
L 2931 1631 
Q 2931 2084 2911 2256 
Q 2891 2428 2841 2509 
Q 2775 2619 2662 2680 
Q 2550 2741 2406 2741 
Q 2056 2741 1856 2470 
Q 1656 2200 1656 1722 
L 1656 0 
L 538 0 
L 538 3500 
L 1656 3500 
L 1656 2988 
Q 1909 3294 2193 3439 
Q 2478 3584 2822 3584 
Q 3428 3584 3742 3212 
Q 4056 2841 4056 2131 
z
" transform="scale(0.015625)"/>
      <path id="DejaVuSans-Bold-69" d="M 538 3500 
L 1656 3500 
L 1656 0 
L 538 0 
L 538 3500 
z
M 538 4863 
L 1656 4863 
L 1656 3950 
L 538 3950 
L 538 4863 
z
" transform="scale(0.015625)"/>
      <path id="DejaVuSans-Bold-74" d="M 1759 4494 
L 1759 3500 
L 2913 3500 
L 2913 2700 
L 1759 2700 
L 1759 1216 
Q 1759 972 1856 886 
Q 1953 800 2241 800 
L 2816 800 
L 2816 0 
L 1856 0 
Q 1194 0 917 276 
Q 641 553 641 1216 
L 641 2700 
L 84 2700 
L 84 3500 
L 641 3500 
L 641 4494 
L 1759 4494 
z
" transform="scale(0.015625)"/>
      <path id="DejaVuSans-Bold-65" d="M 4031 1759 
L 4031 1441 
L 1416 1441 
Q 1456 1047 1700 850 
Q 1944 653 2381 653 
Q 2734 653 3104 758 
Q 3475 863 3866 1075 
L 3866 213 
Q 3469 63 3072 -14 
Q 2675 -91 2278 -91 
Q 1328 -91 801 392 
Q 275 875 275 1747 
Q 275 2603 792 3093 
Q 1309 3584 2216 3584 
Q 3041 3584 3536 3087 
Q 4031 2591 4031 1759 
z
M 2881 2131 
Q 2881 2450 2695 2645 
Q 2509 2841 2209 2841 
Q 1884 2841 1681 2658 
Q 1478 2475 1428 2131 
L 2881 2131 
z
" transform="scale(0.015625)"/>
      <path id="DejaVuSans-Bold-63" d="M 3366 3391 
L 3366 2478 
Q 3138 2634 2908 2709 
Q 2678 2784 2431 2784 
Q 1963 2784 1702 2511 
Q 1441 2238 1441 1747 
Q 1441 1256 1702 982 
Q 1963 709 2431 709 
Q 2694 709 2930 787 
Q 3166 866 3366 1019 
L 3366 103 
Q 3103 6 2833 -42 
Q 2563 -91 2291 -91 
Q 1344 -91 809 395 
Q 275 881 275 1747 
Q 275 2613 809 3098 
Q 1344 3584 2291 3584 
Q 2566 3584 2833 3536 
Q 3100 3488 3366 3391 
z
" transform="scale(0.015625)"/>
      <path id="DejaVuSans-Bold-2014" d="M 344 2156 
L 6056 2156 
L 6056 1350 
L 344 1350 
L 344 2156 
z
" transform="scale(0.015625)"/>
      <path id="DejaVuSans-Bold-72" d="M 3138 2547 
Q 2991 2616 2845 2648 
Q 2700 2681 2553 2681 
Q 2122 2681 1889 2404 
Q 1656 2128 1656 1613 
L 1656 0 
L 538 0 
L 538 3500 
L 1656 3500 
L 1656 2925 
Q 1872 3269 2151 3426 
Q 2431 3584 2822 3584 
Q 2878 3584 2943 3579 
Q 3009 3575 3134 3559 
L 3138 2547 
z
" transform="scale(0.015625)"/>
      <path id="DejaVuSans-Bold-6c" d="M 538 4863 
L 1656 4863 
L 1656 0 
L 538 0 
L 538 4863 
z
" transform="scale(0.015625)"/>
      <path id="DejaVuSans-Bold-67" d="M 2919 594 
Q 2688 288 2409 144 
Q 2131 0 1766 0 
Q 1125 0 706 504 
Q 288 1009 288 1791 
Q 288 2575 706 3076 
Q 1125 3578 1766 3578 
Q 2131 3578 2409 3434 
Q 2688 3291 2919 2981 
L 2919 3500 
L 4044 3500 
L 4044 353 
Q 4044 -491 3511 -936 
Q 2978 -1381 1966 -1381 
Q 1638 -1381 1331 -1331 
Q 1025 -1281 716 -1178 
L 716 -306 
Q 1009 -475 1290 -558 
Q 1572 -641 1856 -641 
Q 2406 -641 2662 -400 
Q 2919 -159 2919 353 
L 2919 594 
z
M 2181 2772 
Q 1834 2772 1640 2515 
Q 1447 2259 1447 1791 
Q 1447 1309 1634 1061 
Q 1822 813 2181 813 
Q 2531 813 2725 1069 
Q 2919 1325 2919 1791 
Q 2919 2259 2725 2515 
Q 2531 2772 2181 2772 
z
" transform="scale(0.015625)"/>
      <path id="DejaVuSans-Bold-37" d="M 428 4666 
L 3944 4666 
L 3944 3988 
L 2125 0 
L 953 0 
L 2675 3781 
L 428 3781 
L 428 4666 
z
" transform="scale(0.015625)"/>
      <path id="DejaVuSans-Bold-2d" d="M 347 2297 
L 2309 2297 
L 2309 1388 
L 347 1388 
L 347 2297 
z
" transform="scale(0.015625)"/>
      <path id="DejaVuSans-Bold-64" d="M 2919 2988 
L 2919 4863 
L 4044 4863 
L 4044 0 
L 2919 0 
L 2919 506 
Q 2688 197 2409 53 
Q 2131 -91 1766 -91 
Q 1119 -91 703 423 
Q 288 938 288 1747 
Q 288 2556 703 3070 
Q 1119 3584 1766 3584 
Q 2128 3584 2408 3439 
Q 2688 3294 2919 2988 
z
M 2181 722 
Q 2541 722 2730 984 
Q 2919 1247 2919 1747 
Q 2919 2247 2730 2509 
Q 2541 2772 2181 2772 
Q 1825 2772 1636 2509 
Q 1447 2247 1447 1747 
Q 1447 1247 1636 984 
Q 1825 722 2181 722 
z
" transform="scale(0.015625)"/>
     </defs>
     <use xlink:href="#DejaVuSans-Bold-44"/>
     <use xlink:href="#DejaVuSans-Bold-61" transform="translate(83.007812 0)"/>
     <use xlink:href="#DejaVuSans-Bold-79" transform="translate(147.363281 0)"/>
     <use xlink:href="#DejaVuSans-Bold-73" transform="translate(212.548828 0)"/>
     <use xlink:href="#DejaVuSans-Bold-20" transform="translate(272.070312 0)"/>
     <use xlink:href="#DejaVuSans-Bold-76" transform="translate(306.884766 0)"/>
     <use xlink:href="#DejaVuSans-Bold-73" transform="translate(372.070312 0)"/>
     <use xlink:href="#DejaVuSans-Bold-20" transform="translate(431.591797 0)"/>
     <use xlink:href="#DejaVuSans-Bold-43" transform="translate(466.40625 0)"/>
     <use xlink:href="#DejaVuSans-Bold-6f" transform="translate(539.794922 0)"/>
     <use xlink:href="#DejaVuSans-Bold-6e" transform="translate(608.496094 0)"/>
     <use xlink:href="#DejaVuSans-Bold-73" transform="translate(679.6875 0)"/>
     <use xlink:href="#DejaVuSans-Bold-69" transform="translate(739.208984 0)"/>
     <use xlink:href="#DejaVuSans-Bold-73" transform="translate(773.486328 0)"/>
     <use xlink:href="#DejaVuSans-Bold-74" transform="translate(833.007812 0)"/>
     <use xlink:href="#DejaVuSans-Bold-65" transform="translate(880.810547 0)"/>
     <use xlink:href="#DejaVuSans-Bold-6e" transform="translate(948.632812 0)"/>
     <use xlink:href="#DejaVuSans-Bold-63" transform="translate(1019.824219 0)"/>
     <use xlink:href="#DejaVuSans-Bold-79" transform="translate(1079.101562 0)"/>
     <use xlink:href="#DejaVuSans-Bold-20" transform="translate(1144.287109 0)"/>
     <use xlink:href="#DejaVuSans-Bold-20" transform="translate(1179.101562 0)"/>
     <use xlink:href="#DejaVuSans-Bold-2014" transform="translate(1213.916016 0)"/>
     <use xlink:href="#DejaVuSans-Bold-20" transform="translate(1313.916016 0)"/>
     <use xlink:href="#DejaVuSans-Bold-20" transform="translate(1348.730469 0)"/>
     <use xlink:href="#DejaVuSans-Bold-72" transform="translate(1383.544922 0)"/>
     <use xlink:href="#DejaVuSans-Bold-6f" transform="translate(1432.861328 0)"/>
     <use xlink:href="#DejaVuSans-Bold-6c" transform="translate(1501.5625 0)"/>
     <use xlink:href="#DejaVuSans-Bold-6c" transform="translate(1535.839844 0)"/>
     <use xlink:href="#DejaVuSans-Bold-69" transform="translate(1570.117188 0)"/>
     <use xlink:href="#DejaVuSans-Bold-6e" transform="translate(1604.394531 0)"/>
     <use xlink:href="#DejaVuSans-Bold-67" transform="translate(1675.585938 0)"/>
     <use xlink:href="#DejaVuSans-Bold-20" transform="translate(1747.167969 0)"/>
     <use xlink:href="#DejaVuSans-Bold-37" transform="translate(1781.982422 0)"/>
     <use xlink:href="#DejaVuSans-Bold-2d" transform="translate(1851.5625 0)"/>
     <use xlink:href="#DejaVuSans-Bold-64" transform="translate(1893.066406 0)"/>
     <use xlink:href="#DejaVuSans-Bold-61" transform="translate(1964.648438 0)"/>
     <use xlink:href="#DejaVuSans-Bold-79" transform="translate(2029.003906 0)"/>
     <use xlink:href="#DejaVuSans-Bold-20" transform="translate(2094.189453 0)"/>
     <use xlink:href="#DejaVuSans-Bold-61" transform="translate(2129.003906 0)"/>
     <use xlink:href="#DejaVuSans-Bold-63" transform="translate(2196.484375 0)"/>
     <use xlink:href="#DejaVuSans-Bold-74" transform="translate(2255.761719 0)"/>
     <use xlink:href="#DejaVuSans-Bold-69" transform="translate(2303.564453 0)"/>
     <use xlink:href="#DejaVuSans-Bold-76" transform="translate(2337.841797 0)"/>
     <use xlink:href="#DejaVuSans-Bold-69" transform="translate(2403.027344 0)"/>
     <use xlink:href="#DejaVuSans-Bold-74" transform="translate(2437.304688 0)"/>
     <use xlink:href="#DejaVuSans-Bold-79" transform="translate(2485.107422 0)"/>
     <use xlink:href="#DejaVuSans-Bold-20" transform="translate(2550.292969 0)"/>
     <use xlink:href="#DejaVuSans-Bold-72" transform="translate(2585.107422 0)"/>
     <use xlink:href="#DejaVuSans-Bold-61" transform="translate(2634.423828 0)"/>
     <use xlink:href="#DejaVuSans-Bold-74" transform="translate(2701.904297 0)"/>
     <use xlink:href="#DejaVuSans-Bold-65" transform="translate(2749.707031 0)"/>
    </g>
   </g>
  </g>
  <g id="text_22">
   <!-- Current streak: 9d      Longest streak: 15d      Avg consistency: 20% -->
   <g style="fill: #00c2ff" transform="translate(183.588594 313.897969) scale(0.11 -0.11)">
    <defs>
     <path id="DejaVuSans-Bold-75" d="M 500 1363 
L 500 3500 
L 1625 3500 
L 1625 3150 
Q 1625 2866 1622 2436 
Q 1619 2006 1619 1863 
Q 1619 1441 1641 1255 
Q 1663 1069 1716 984 
Q 1784 875 1895 815 
Q 2006 756 2150 756 
Q 2500 756 2700 1025 
Q 2900 1294 2900 1772 
L 2900 3500 
L 4019 3500 
L 4019 0 
L 2900 0 
L 2900 506 
Q 2647 200 2364 54 
Q 2081 -91 1741 -91 
Q 1134 -91 817 281 
Q 500 653 500 1363 
z
" transform="scale(0.015625)"/>
     <path id="DejaVuSans-Bold-6b" d="M 538 4863 
L 1656 4863 
L 1656 2216 
L 2944 3500 
L 4244 3500 
L 2534 1894 
L 4378 0 
L 3022 0 
L 1656 1459 
L 1656 0 
L 538 0 
L 538 4863 
z
" transform="scale(0.015625)"/>
     <path id="DejaVuSans-Bold-3a" d="M 716 3500 
L 1844 3500 
L 1844 2291 
L 716 2291 
L 716 3500 
z
M 716 1209 
L 1844 1209 
L 1844 0 
L 716 0 
L 716 1209 
z
" transform="scale(0.015625)"/>
     <path id="DejaVuSans-Bold-39" d="M 641 103 
L 641 966 
Q 928 831 1190 764 
Q 1453 697 1709 697 
Q 2247 697 2547 995 
Q 2847 1294 2900 1881 
Q 2688 1725 2447 1647 
Q 2206 1569 1925 1569 
Q 1209 1569 770 1986 
Q 331 2403 331 3084 
Q 331 3838 820 4291 
Q 1309 4744 2131 4744 
Q 3044 4744 3544 4128 
Q 4044 3513 4044 2388 
Q 4044 1231 3459 570 
Q 2875 -91 1856 -91 
Q 1528 -91 1228 -42 
Q 928 6 641 103 
z
M 2125 2350 
Q 2441 2350 2600 2554 
Q 2759 2759 2759 3169 
Q 2759 3575 2600 3781 
Q 2441 3988 2125 3988 
Q 1809 3988 1650 3781 
Q 1491 3575 1491 3169 
Q 1491 2759 1650 2554 
Q 1809 2350 2125 2350 
z
" transform="scale(0.015625)"/>
     <path id="DejaVuSans-Bold-4c" d="M 588 4666 
L 1791 4666 
L 1791 909 
L 3903 909 
L 3903 0 
L 588 0 
L 588 4666 
z
" transform="scale(0.015625)"/>
     <path id="DejaVuSans-Bold-31" d="M 750 831 
L 1813 831 
L 1813 3847 
L 722 3622 
L 722 4441 
L 1806 4666 
L 2950 4666 
L 2950 831 
L 4013 831 
L 4013 0 
L 750 0 
L 750 831 
z
" transform="scale(0.015625)"/>
     <path id="DejaVuSans-Bold-35" d="M 678 4666 
L 3669 4666 
L 3669 3781 
L 1638 3781 
L 1638 3059 
Q 1775 3097 1914 3117 
Q 2053 3138 2203 3138 
Q 3056 3138 3531 2711 
Q 4006 2284 4006 1522 
Q 4006 766 3489 337 
Q 2972 -91 2053 -91 
Q 1656 -91 1267 -14 
Q 878 63 494 219 
L 494 1166 
Q 875 947 1217 837 
Q 1559 728 1863 728 
Q 2300 728 2551 942 
Q 2803 1156 2803 1522 
Q 2803 1891 2551 2103 
Q 2300 2316 1863 2316 
Q 1603 2316 1309 2248 
Q 1016 2181 678 2041 
L 678 4666 
z
" transform="scale(0.015625)"/>
     <path id="DejaVuSans-Bold-41" d="M 3419 850 
L 1538 850 
L 1241 0 
L 31 0 
L 1759 4666 
L 3194 4666 
L 4922 0 
L 3713 0 
L 3419 850 
z
M 1838 1716 
L 3116 1716 
L 2478 3572 
L 1838 1716 
z
" transform="scale(0.015625)"/>
     <path id="DejaVuSans-Bold-32" d="M 1844 884 
L 3897 884 
L 3897 0 
L 506 0 
L 506 884 
L 2209 2388 
Q 2438 2594 2547 2791 
Q 2656 2988 2656 3200 
Q 2656 3528 2436 3728 
Q 2216 3928 1850 3928 
Q 1569 3928 1234 3808 
Q 900 3688 519 3450 
L 519 4475 
Q 925 4609 1322 4679 
Q 1719 4750 2100 4750 
Q 2938 4750 3402 4381 
Q 3866 4013 3866 3353 
Q 3866 2972 3669 2642 
Q 3472 2313 2841 1759 
L 1844 884 
z
" transform="scale(0.015625)"/>
     <path id="DejaVuSans-Bold-30" d="M 2944 2338 
Q 2944 3213 2780 3570 
Q 2616 3928 2228 3928 
Q 1841 3928 1675 3570 
Q 1509 3213 1509 2338 
Q 1509 1453 1675 1090 
Q 1841 728 2228 728 
Q 2613 728 2778 1090 
Q 2944 1453 2944 2338 
z
M 4147 2328 
Q 4147 1169 3647 539 
Q 3147 -91 2228 -91 
Q 1306 -91 806 539 
Q 306 1169 306 2328 
Q 306 3491 806 4120 
Q 1306 4750 2228 4750 
Q 3147 4750 3647 4120 
Q 4147 3491 4147 2328 
z
" transform="scale(0.015625)"/>
     <path id="DejaVuSans-Bold-25" d="M 4959 1925 
Q 4738 1925 4616 1733 
Q 4494 1541 4494 1184 
Q 4494 825 4614 633 
Q 4734 441 4959 441 
Q 5184 441 5303 633 
Q 5422 825 5422 1184 
Q 5422 1541 5301 1733 
Q 5181 1925 4959 1925 
z
M 4959 2450 
Q 5541 2450 5875 2112 
Q 6209 1775 6209 1184 
Q 6209 594 5875 251 
Q 5541 -91 4959 -91 
Q 4378 -91 4042 251 
Q 3706 594 3706 1184 
Q 3706 1772 4042 2111 
Q 4378 2450 4959 2450 
z
M 2094 -91 
L 1403 -91 
L 4319 4750 
L 5013 4750 
L 2094 -91 
z
M 1453 4750 
Q 2034 4750 2367 4411 
Q 2700 4072 2700 3481 
Q 2700 2891 2367 2550 
Q 2034 2209 1453 2209 
Q 872 2209 539 2550 
Q 206 2891 206 3481 
Q 206 4072 539 4411 
Q 872 4750 1453 4750 
z
M 1453 4225 
Q 1228 4225 1106 4031 
Q 984 3838 984 3481 
Q 984 3122 1106 2926 
Q 1228 2731 1453 2731 
Q 1678 2731 1798 2926 
Q 1919 3122 1919 3481 
Q 1919 3838 1797 4031 
Q 1675 4225 1453 4225 
z
" transform="scale(0.015625)"/>
    </defs>
    <use xlink:href="#DejaVuSans-Bold-43"/>
    <use xlink:href="#DejaVuSans-Bold-75" transform="translate(73.388672 0)"/>
    <use xlink:href="#DejaVuSans-Bold-72" transform="translate(144.580078 0)"/>
    <use xlink:href="#DejaVuSans-Bold-72" transform="translate(193.896484 0)"/>
    <use xlink:href="#DejaVuSans-Bold-65" transform="translate(243.212891 0)"/>
    <use xlink:href="#DejaVuSans-Bold-6e" transform="translate(311.035156 0)"/>
    <use xlink:href="#DejaVuSans-Bold-74" transform="translate(382.226562 0)"/>
    <use xlink:href="#DejaVuSans-Bold-20" transform="translate(430.029297 0)"/>
    <use xlink:href="#DejaVuSans-Bold-73" transform="translate(464.84375 0)"/>
    <use xlink:href="#DejaVuSans-Bold-74" transform="translate(524.365234 0)"/>
    <use xlink:href="#DejaVuSans-Bold-72" transform="translate(572.167969 0)"/>
    <use xlink:href="#DejaVuSans-Bold-65" transform="translate(621.484375 0)"/>
    <use xlink:href="#DejaVuSans-Bold-61" transform="translate(689.306641 0)"/>
    <use xlink:href="#DejaVuSans-Bold-6b" transform="translate(756.787109 0)"/>
    <use xlink:href="#DejaVuSans-Bold-3a" transform="translate(823.291016 0)"/>
    <use xlink:href="#DejaVuSans-Bold-20" transform="translate(863.28125 0)"/>
    <use xlink:href="#DejaVuSans-Bold-39" transform="translate(898.095703 0)"/>
    <use xlink:href="#DejaVuSans-Bold-64" transform="translate(967.675781 0)"/>
    <use xlink:href="#DejaVuSans-Bold-20" transform="translate(1039.257812 0)"/>
    <use xlink:href="#DejaVuSans-Bold-20" transform="translate(1074.072266 0)"/>
    <use xlink:href="#DejaVuSans-Bold-20" transform="translate(1108.886719 0)"/>
    <use xlink:href="#DejaVuSans-Bold-20" transform="translate(1143.701172 0)"/>
    <use xlink:href="#DejaVuSans-Bold-20" transform="translate(1178.515625 0)"/>
    <use xlink:href="#DejaVuSans-Bold-20" transform="translate(1213.330078 0)"/>
    <use xlink:href="#DejaVuSans-Bold-4c" transform="translate(1248.144531 0)"/>
    <use xlink:href="#DejaVuSans-Bold-6f" transform="translate(1311.865234 0)"/>
    <use xlink:href="#DejaVuSans-Bold-6e" transform="translate(1380.566406 0)"/>
    <use xlink:href="#DejaVuSans-Bold-67" transform="translate(1451.757812 0)"/>
    <use xlink:href="#DejaVuSans-Bold-65" transform="translate(1523.339844 0)"/>
    <use xlink:href="#DejaVuSans-Bold-73" transform="translate(1591.162109 0)"/>
    <use xlink:href="#DejaVuSans-Bold-74" transform="translate(1650.683594 0)"/>
    <use xlink:href="#DejaVuSans-Bold-20" transform="translate(1698.486328 0)"/>
    <use xlink:href="#DejaVuSans-Bold-73" transform="translate(1733.300781 0)"/>
    <use xlink:href="#DejaVuSans-Bold-74" transform="translate(1792.822266 0)"/>
    <use xlink:href="#DejaVuSans-Bold-72" transform="translate(1840.625 0)"/>
    <use xlink:href="#DejaVuSans-Bold-65" transform="translate(1889.941406 0)"/>
    <use xlink:href="#DejaVuSans-Bold-61" transform="translate(1957.763672 0)"/>
    <use xlink:href="#DejaVuSans-Bold-6b" transform="translate(2025.244141 0)"/>
    <use xlink:href="#DejaVuSans-Bold-3a" transform="translate(2091.748047 0)"/>
    <use xlink:href="#DejaVuSans-Bold-20" transform="translate(2131.738281 0)"/>
    <use xlink:href="#DejaVuSans-Bold-31" transform="translate(2166.552734 0)"/>
    <use xlink:href="#DejaVuSans-Bold-35" transform="translate(2236.132812 0)"/>
    <use xlink:href="#DejaVuSans-Bold-64" transform="translate(2305.712891 0)"/>
    <use xlink:href="#DejaVuSans-Bold-20" transform="translate(2377.294922 0)"/>
    <use xlink:href="#DejaVuSans-Bold-20" transform="translate(2412.109375 0)"/>
    <use xlink:href="#DejaVuSans-Bold-20" transform="translate(2446.923828 0)"/>
    <use xlink:href="#DejaVuSans-Bold-20" transform="translate(2481.738281 0)"/>
    <use xlink:href="#DejaVuSans-Bold-20" transform="translate(2516.552734 0)"/>
    <use xlink:href="#DejaVuSans-Bold-20" transform="translate(2551.367188 0)"/>
    <use xlink:href="#DejaVuSans-Bold-41" transform="translate(2586.181641 0)"/>
    <use xlink:href="#DejaVuSans-Bold-76" transform="translate(2659.949219 0)"/>
    <use xlink:href="#DejaVuSans-Bold-67" transform="translate(2725.134766 0)"/>
    <use xlink:href="#DejaVuSans-Bold-20" transform="translate(2796.716797 0)"/>
    <use xlink:href="#DejaVuSans-Bold-63" transform="translate(2831.53125 0)"/>
    <use xlink:href="#DejaVuSans-Bold-6f" transform="translate(2890.808594 0)"/>
    <use xlink:href="#DejaVuSans-Bold-6e" transform="translate(2959.509766 0)"/>
    <use xlink:href="#DejaVuSans-Bold-73" transform="translate(3030.701172 0)"/>
    <use xlink:href="#DejaVuSans-Bold-69" transform="translate(3090.222656 0)"/>
    <use xlink:href="#DejaVuSans-Bold-73" transform="translate(3124.5 0)"/>
    <use xlink:href="#DejaVuSans-Bold-74" transform="translate(3184.021484 0)"/>
    <use xlink:href="#DejaVuSans-Bold-65" transform="translate(3231.824219 0)"/>
    <use xlink:href="#DejaVuSans-Bold-6e" transform="translate(3299.646484 0)"/>
    <use xlink:href="#DejaVuSans-Bold-63" transform="translate(3370.837891 0)"/>
    <use xlink:href="#DejaVuSans-Bold-79" transform="translate(3430.115234 0)"/>
    <use xlink:href="#DejaVuSans-Bold-3a" transform="translate(3495.300781 0)"/>
    <use xlink:href="#DejaVuSans-Bold-20" transform="translate(3535.291016 0)"/>
    <use xlink:href="#DejaVuSans-Bold-32" transform="translate(3570.105469 0)"/>
    <use xlink:href="#DejaVuSans-Bold-30" transform="translate(3639.685547 0)"/>
    <use xlink:href="#DejaVuSans-Bold-25" transform="translate(3709.265625 0)"/>
   </g>
  </g>
 </g>
 <defs>
  <clipPath id="p57becb0884">
   <rect x="44.1025" y="31.077969" width="734.2" height="221.542358"/>
  </clipPath>
 </defs>
</svg>
